<svg width="33" height="32" viewBox="0 0 33 32" fill="none" xmlns="http://www.w3.org/2000/svg">
<path fill-rule="evenodd" clip-rule="evenodd" d="M4.50294 10.0853C4.17546 9.56031 4.34282 8.96797 4.87652 8.48231C5.13638 8.24584 5.43804 8.08764 5.69827 8.02711C5.96472 7.96511 6.09934 8.01984 6.15364 8.06337C7.35789 9.02871 8.13742 9.27877 8.81669 9.33817C9.00996 9.35504 9.15596 9.35971 9.27496 9.36351C9.57142 9.37291 9.70002 9.37704 9.97269 9.55184L10.6924 8.42944C10.0836 8.03911 9.53702 8.02731 9.16082 8.01917C9.07569 8.01731 8.99929 8.01571 8.93282 8.00991C8.57762 7.97884 8.04049 7.86704 6.98758 7.02304C6.50467 6.63593 5.90044 6.61109 5.39609 6.72844C4.88552 6.84724 4.3844 7.12737 3.97915 7.49617C3.18266 8.22091 2.57056 9.50671 3.37164 10.791C3.7855 11.4544 4.24495 12.024 4.66859 12.4853C4.72937 12.3712 4.80747 12.2668 4.90344 12.1742C5.14549 11.941 5.47098 11.813 5.83873 11.7833C5.41056 11.3392 4.92704 10.7652 4.50294 10.0853Z" fill="#007AC5"/>
<path fill-rule="evenodd" clip-rule="evenodd" d="M8.62986 15.3919C8.56632 15.1048 8.36112 14.7156 7.96852 14.3538C7.57592 13.9918 7.15852 13.8072 6.85258 13.7537C6.68294 13.724 6.5935 13.7378 6.55491 13.7494C6.54348 13.786 6.53086 13.8706 6.5661 14.0298C6.62966 14.3169 6.83484 14.7061 7.22746 15.068C7.62006 15.4298 8.03746 15.6145 8.34339 15.668C8.51299 15.6976 8.60246 15.6838 8.64106 15.6723C8.65246 15.6356 8.66512 15.5511 8.62986 15.3919ZM8.63086 15.695C8.63066 15.6949 8.63166 15.693 8.63439 15.6894C8.63239 15.6934 8.63106 15.6952 8.63086 15.695ZM8.65906 15.6656C8.66279 15.663 8.66486 15.662 8.66492 15.6622C8.66506 15.6624 8.66326 15.6637 8.65906 15.6656ZM6.56511 13.7267C6.5653 13.7268 6.56432 13.7288 6.56158 13.7323C6.56355 13.7284 6.56492 13.7266 6.56511 13.7267ZM6.53687 13.7561C6.53318 13.7588 6.53112 13.7597 6.531 13.7596C6.53088 13.7594 6.53273 13.758 6.53687 13.7561ZM9.62632 16.5805C10.3612 15.8722 10.0487 14.461 8.92852 13.4284C7.80826 12.3959 6.30444 12.133 5.5696 12.8412C4.83476 13.5495 5.1472 14.9607 6.26744 15.9932C7.38766 17.0258 8.89152 17.2887 9.62632 16.5805Z" fill="#007AC5"/>
<path fill-rule="evenodd" clip-rule="evenodd" d="M28.1621 10.0853C28.4896 9.56031 28.3223 8.96797 27.7885 8.48231C27.5287 8.24584 27.2271 8.08764 26.9668 8.02711C26.7003 7.96511 26.5657 8.01984 26.5115 8.06337C25.3072 9.02871 24.5277 9.27877 23.8484 9.33817C23.6551 9.35504 23.5091 9.35971 23.3901 9.36351C23.0937 9.37291 22.9651 9.37704 22.6924 9.55184L21.9727 8.42944C22.5815 8.03911 23.1281 8.02731 23.5043 8.01917C23.5894 8.01731 23.6658 8.01571 23.7323 8.00991C24.0875 7.97884 24.6246 7.86704 25.6775 7.02304C26.1604 6.63593 26.7647 6.61109 27.269 6.72844C27.7796 6.84724 28.2807 7.12737 28.6859 7.49617C29.4824 8.2209 30.0945 9.50671 29.2935 10.791C28.8709 11.4684 28.4008 12.0479 27.9698 12.5142C27.9071 12.3889 27.824 12.2745 27.72 12.1742C27.4864 11.9491 27.1751 11.8221 26.823 11.7868C27.252 11.3422 27.7369 10.767 28.1621 10.0853Z" fill="#007AC5"/>
<path fill-rule="evenodd" clip-rule="evenodd" d="M23.9919 15.3919C24.0554 15.1048 24.2606 14.7156 24.6532 14.3538C25.0458 13.9918 25.4632 13.8072 25.7691 13.7537C25.9388 13.724 26.0282 13.7378 26.0668 13.7494C26.0783 13.786 26.0909 13.8706 26.0556 14.0298C25.9921 14.3169 25.7869 14.7061 25.3943 15.068C25.0017 15.4298 24.5843 15.6145 24.2783 15.668C24.1087 15.6976 24.0193 15.6838 23.9807 15.6723C23.9693 15.6356 23.9566 15.5511 23.9919 15.3919ZM23.9909 15.695C23.9911 15.6949 23.9901 15.693 23.9873 15.6894C23.9893 15.6934 23.9907 15.6952 23.9909 15.695ZM23.9627 15.6656C23.9589 15.663 23.9569 15.662 23.9568 15.6622C23.9567 15.6624 23.9585 15.6637 23.9627 15.6656ZM26.0566 13.7267C26.0564 13.7268 26.0574 13.7288 26.0601 13.7323C26.0582 13.7284 26.0568 13.7266 26.0566 13.7267ZM26.0849 13.7561C26.0885 13.7588 26.0906 13.7597 26.0907 13.7596C26.0909 13.7594 26.089 13.758 26.0849 13.7561ZM22.9954 16.5805C22.2605 15.8722 22.573 14.461 23.6932 13.4284C24.8135 12.3959 26.3173 12.133 27.0521 12.8412C27.7869 13.5495 27.4745 14.9607 26.3543 15.9932C25.2341 17.0258 23.7302 17.2887 22.9954 16.5805Z" fill="#007AC5"/>
<path fill-rule="evenodd" clip-rule="evenodd" d="M12.7743 12.8081C13.0631 13.4432 13.4303 13.9618 13.7016 14.2344C14.1983 14.7337 14.4279 15.536 14.5634 16.3163C14.7051 17.1323 14.7689 18.0992 14.8205 19.068C14.8307 19.2592 14.8403 19.4505 14.8501 19.6415C14.8903 20.434 14.9301 21.2206 15.002 21.9608C15.0658 22.6176 15.1524 23.2075 15.2763 23.7044C15.3625 23.6296 15.4561 23.55 15.5364 23.4882C15.6239 23.4208 15.7308 23.3454 15.8488 23.2848C15.9609 23.2273 16.1331 23.1566 16.3401 23.1566C16.5512 23.1566 16.7249 23.2298 16.8407 23.2933C16.9599 23.3587 17.0639 23.4396 17.1464 23.5103C17.1731 23.5332 17.2005 23.5578 17.2281 23.5832C17.3089 23.137 17.3539 22.625 17.3771 22.0591C17.4015 21.4644 17.4014 20.8496 17.4012 20.2174C17.4011 19.9026 17.4011 19.5836 17.404 19.2606C17.4127 18.3123 17.448 17.3468 17.6041 16.494C17.7585 15.65 18.0465 14.8237 18.6329 14.2344C19.0309 13.8344 19.4751 13.2467 19.8112 12.5948C20.1507 11.9363 20.3501 11.2704 20.3322 10.7006C20.3155 10.1668 20.1121 9.70497 19.5828 9.34817C19.0158 8.96591 18.0167 8.66671 16.3401 8.66671C14.6729 8.66671 13.6857 8.98971 13.122 9.39697C12.5871 9.78351 12.3671 10.2936 12.3369 10.8774C12.3054 11.4871 12.4855 12.1728 12.7743 12.8081ZM12.3411 8.31624C13.2236 7.67864 14.5318 7.33337 16.3401 7.33337C18.1387 7.33337 19.4461 7.64804 20.3281 8.24264C21.2479 8.86271 21.6361 9.74077 21.6649 10.6588C21.6926 11.541 21.3916 12.4392 20.9963 13.2059C20.5975 13.9794 20.0723 14.6782 19.578 15.1749C19.2719 15.4826 19.0511 15.9931 18.9156 16.7339C18.7817 17.4658 18.7459 18.3328 18.7373 19.2728C18.7346 19.5678 18.7346 19.8722 18.7347 20.18C18.7348 20.8286 18.7349 21.4922 18.7093 22.1138C18.6716 23.0326 18.5765 23.9474 18.3135 24.7132C18.2639 24.8577 18.1601 25.0754 17.9299 25.216C17.6714 25.374 17.4066 25.345 17.2337 25.2867C17.0767 25.2338 16.9515 25.1447 16.8718 25.082C16.7854 25.0139 16.704 24.9372 16.6361 24.8708C16.5811 24.8169 16.5342 24.7697 16.4919 24.727C16.4305 24.665 16.3786 24.6127 16.3252 24.5639C16.2559 24.6186 16.1941 24.6728 16.1217 24.7364C16.0659 24.7854 16.0038 24.84 15.9271 24.9044C15.7962 25.0146 15.5535 25.2166 15.2788 25.2957C15.1169 25.3423 14.8723 25.3674 14.6247 25.2364C14.3835 25.1088 14.2607 24.8968 14.1985 24.731C13.9147 23.9753 13.7673 23.0414 13.6749 22.0897C13.5998 21.3156 13.5579 20.49 13.5177 19.6952C13.5082 19.5077 13.4988 19.3219 13.489 19.139C13.4372 18.1651 13.3761 17.2722 13.2497 16.5444C13.1171 15.7808 12.9356 15.355 12.7565 15.1749C12.3519 14.7684 11.9012 14.1092 11.5605 13.3599C11.2199 12.6106 10.959 11.7052 11.0053 10.8085C11.0531 9.88591 11.4299 8.97457 12.3411 8.31624ZM16.2004 24.4629C16.1983 24.4618 16.1979 24.4615 16.1996 24.4624C16.1998 24.4626 16.2001 24.4627 16.2004 24.4629Z" fill="#007AC5"/>
</svg>
