<svg width="32" height="32" viewBox="0 0 32 32" fill="none" xmlns="http://www.w3.org/2000/svg">
<path d="M9.34983 13.0389L9.79157 13.5382L9.34983 13.0389ZM23.8608 12.4554L23.4191 12.9547L23.8608 12.4554ZM12.2714 9.01453L12.6482 9.56447C12.801 9.45973 12.9033 9.29627 12.9307 9.11313C12.9581 8.93 12.908 8.74367 12.7926 8.59893L12.2714 9.01453ZM10.6654 7.00047L10.306 6.43892C10.147 6.5407 10.0386 6.7052 10.0077 6.89147C9.97677 7.0778 10.0264 7.26847 10.1441 7.41613L10.6654 7.00047ZM12.9138 5.56185L13.435 5.14623C13.2221 4.87929 12.842 4.81629 12.5544 5.0003L12.9138 5.56185ZM14.5197 7.57593L13.9985 7.99153C14.1908 8.23273 14.5234 8.31047 14.8026 8.1796L14.5197 7.57593ZM16.3614 6.71273L16.6443 7.3164C16.8784 7.20667 17.028 6.97133 17.028 6.71273H16.3614ZM16.3614 4.66669L16.3613 4.00003C15.9932 4.00003 15.6947 4.29851 15.6947 4.66669H16.3614ZM19.2307 4.66667H19.8974C19.8974 4.48985 19.8271 4.32029 19.7021 4.19526C19.577 4.07023 19.4075 4 19.2307 4V4.66667ZM19.2307 6.71273H18.564C18.564 6.9564 18.697 7.1806 18.9107 7.2976L19.2307 6.71273ZM8.66537 13.3529L8.0905 13.6905C8.1833 13.8486 8.33717 13.9615 8.51583 14.0026C8.6945 14.0437 8.88217 14.0095 9.03483 13.9079L8.66537 13.3529ZM5.9987 11.5751L5.34368 11.451C5.31016 11.628 5.34967 11.811 5.45322 11.9583C5.55677 12.1057 5.71554 12.2049 5.89339 12.2334L5.9987 11.5751ZM6.59572 8.4234L6.7839 7.78387C6.60331 7.73073 6.40864 7.7564 6.248 7.8546C6.08737 7.9528 5.97574 8.11433 5.9407 8.29933L6.59572 8.4234ZM11.332 12.0215L11.5793 12.6406C11.8622 12.5277 12.0324 12.2374 11.9931 11.9354L11.332 12.0215ZM21.0549 11.4915L21.335 12.0965L21.0549 11.4915ZM15.4358 12.9364L14.8381 12.6411L14.4864 13.3532L15.2486 13.5762L15.4358 12.9364ZM19.5004 8.78987L19.2204 8.18487L19.5004 8.78987ZM25.7788 7.8638L26.445 7.88833L26.4696 7.2206L25.8018 7.19753L25.7788 7.8638ZM25.6622 11.0316L25.6392 11.6979L26.3039 11.7208L26.3284 11.0561L25.6622 11.0316ZM18.8004 13.5559L18.2362 13.2009L18.8004 13.5559ZM17.9072 13.8519L17.6461 14.4653L17.9072 13.8519ZM17.154 20.1939L17.7658 19.9291L17.154 20.1939ZM16.9718 17.5321L17.614 17.7109L16.9718 17.5321ZM8.9081 12.5395C7.57157 13.7218 7.07077 15.3368 7.12737 17.0178C7.18343 18.6855 7.78484 20.4496 8.68704 22.0457C9.5911 23.6451 10.8204 25.1173 12.1822 26.1967C13.5346 27.2685 15.0792 28 16.6053 28V26.6667C15.493 26.6667 14.2344 26.1219 13.0104 25.1517C11.7956 24.1889 10.6751 22.8533 9.84777 21.3896C9.01857 19.9226 8.5069 18.3683 8.4599 16.9729C8.41343 15.5908 8.81957 14.398 9.79157 13.5382L8.9081 12.5395ZM16.6053 28C18.1275 28 19.7118 27.2723 21.1146 26.1951C22.5282 25.1097 23.8226 23.6209 24.7714 21.9822C26.6358 18.7623 27.3163 14.6219 24.3025 11.9561L23.4191 12.9547C25.6924 14.9655 25.3835 18.2641 23.6175 21.3141C22.7512 22.8103 21.5702 24.1641 20.3026 25.1376C19.0242 26.1192 17.7215 26.6667 16.6053 26.6667V28ZM24.3025 11.9561C23.9198 11.6176 23.6216 11.4417 23.2958 11.277C22.9816 11.1181 22.6906 10.9913 22.2206 10.7143L21.5434 11.8627C22.0629 12.1691 22.4315 12.3341 22.6943 12.4669C22.9456 12.5939 23.1421 12.7097 23.4191 12.9547L24.3025 11.9561ZM15.8728 12.3663C14.8796 12.0412 13.5915 11.7237 12.3509 11.6526C11.1415 11.5833 9.8139 11.7383 8.9081 12.5395L9.79157 13.5382C10.2883 13.0988 11.1574 12.9197 12.2746 12.9837C13.3605 13.046 14.529 13.3293 15.4579 13.6335L15.8728 12.3663ZM12.7926 8.59893L11.1866 6.58484L10.1441 7.41613L11.7501 9.4302L12.7926 8.59893ZM11.0247 7.562L13.273 6.12341L12.5544 5.0003L10.306 6.43892L11.0247 7.562ZM12.3925 5.97749L13.9985 7.99153L15.041 7.16027L13.435 5.14623L12.3925 5.97749ZM14.8026 8.1796L16.6443 7.3164L16.0784 6.1091L14.2368 6.97227L14.8026 8.1796ZM17.028 6.71273V4.66669H15.6947V6.71273H17.028ZM16.3614 5.33336L19.2307 5.33333V4L16.3613 4.00003L16.3614 5.33336ZM18.564 4.66667V6.71273H19.8974V4.66667H18.564ZM19.2307 6.71273C18.9107 7.2976 18.9106 7.29753 18.9104 7.2974C18.9104 7.2974 18.9102 7.29733 18.9102 7.29727C18.91 7.2972 18.9098 7.29713 18.9097 7.29707C18.9094 7.29687 18.9092 7.29673 18.909 7.29667C18.9086 7.2964 18.9084 7.29633 18.9084 7.29633C18.9084 7.29627 18.9091 7.29667 18.9104 7.29747C18.9132 7.29907 18.9188 7.30227 18.9269 7.30707C18.9432 7.31667 18.9696 7.3326 19.0044 7.35493C19.0741 7.39973 19.1767 7.46947 19.2981 7.5638C19.5428 7.75387 19.8544 8.03633 20.1306 8.4074L21.2002 7.61133C20.8339 7.1192 20.4282 6.75333 20.1161 6.51088C19.9592 6.38899 19.8236 6.29639 19.7246 6.23291C19.6752 6.20113 19.6346 6.17651 19.605 6.15903C19.5902 6.15029 19.5782 6.14332 19.569 6.13813C19.5644 6.13553 19.5606 6.13338 19.5576 6.13167C19.556 6.13081 19.5547 6.13007 19.5535 6.12943C19.553 6.12912 19.5524 6.12883 19.552 6.12857C19.5517 6.12843 19.5515 6.12831 19.5513 6.12819C19.5512 6.12813 19.551 6.12805 19.551 6.12802C19.5508 6.12794 19.5506 6.12786 19.2307 6.71273ZM11.6406 11.1059C11.7889 10.5773 12.0506 10.184 12.2755 9.9228C12.3878 9.79253 12.4891 9.6972 12.559 9.63687C12.5938 9.60673 12.6205 9.58567 12.6364 9.57353C12.6443 9.56747 12.6495 9.56367 12.6516 9.56213C12.6526 9.5614 12.6529 9.5612 12.6524 9.5616C12.6521 9.5618 12.6516 9.56213 12.6509 9.5626C12.6506 9.5628 12.6502 9.56313 12.6498 9.5634C12.6495 9.56353 12.6493 9.56373 12.649 9.56393C12.6489 9.564 12.6487 9.56413 12.6486 9.56413C12.6484 9.56433 12.6482 9.56447 12.2714 9.01453C11.8944 8.4646 11.8942 8.4648 11.894 8.46493C11.894 8.465 11.8938 8.46513 11.8936 8.4652C11.8933 8.46547 11.893 8.46567 11.8926 8.46587C11.892 8.46633 11.8912 8.46687 11.8904 8.4674C11.8889 8.46847 11.8871 8.46973 11.8851 8.47113C11.8811 8.474 11.8762 8.47747 11.8704 8.4816C11.859 8.48987 11.8443 8.50073 11.8266 8.51427C11.7912 8.54133 11.7438 8.57913 11.6876 8.62767C11.5752 8.72467 11.4261 8.86593 11.2653 9.05267C10.9442 9.42547 10.5695 9.98787 10.3568 10.7457L11.6406 11.1059ZM8.66537 13.3529C9.24023 13.0154 9.2401 13.0152 9.23997 13.0149C9.23997 13.0149 9.23977 13.0146 9.2397 13.0145C9.2395 13.0141 9.23924 13.0137 9.23904 13.0133C9.23857 13.0125 9.23803 13.0117 9.23743 13.0107C9.2363 13.0087 9.2349 13.0064 9.2333 13.0037C9.2301 12.9984 9.22597 12.9917 9.2209 12.9835C9.21083 12.9674 9.1971 12.9458 9.1797 12.9196C9.1449 12.8672 9.0953 12.7959 9.03063 12.7111C8.9017 12.5421 8.7107 12.3167 8.45584 12.0815C7.94764 11.6125 7.1655 11.0866 6.10401 10.9168L5.89339 12.2334C6.62293 12.3501 7.1741 12.7131 7.5515 13.0614C7.7395 13.2348 7.8793 13.4002 7.9705 13.5198C8.01597 13.5793 8.0487 13.6267 8.06883 13.657C8.07883 13.6721 8.0857 13.6829 8.0893 13.6887C8.0911 13.6916 8.0921 13.6933 8.0923 13.6936C8.09243 13.6937 8.0923 13.6936 8.09197 13.6931C8.09184 13.6928 8.09163 13.6925 8.09137 13.6921C8.09123 13.6919 8.0911 13.6916 8.09097 13.6913C8.0909 13.6912 8.09077 13.691 8.0907 13.6909C8.09057 13.6907 8.0905 13.6905 8.66537 13.3529ZM6.65372 11.6991L7.25077 8.54747L5.9407 8.29933L5.34368 11.451L6.65372 11.6991ZM6.59572 8.4234C6.40751 9.06293 6.40738 9.06293 6.40727 9.06287C6.40726 9.06287 6.40717 9.06287 6.40714 9.06287C6.40708 9.06287 6.4071 9.06287 6.40717 9.06287C6.40732 9.06293 6.40773 9.063 6.40841 9.06327C6.40976 9.06367 6.41216 9.06433 6.41556 9.0654C6.42236 9.06747 6.43317 9.07073 6.44776 9.07527C6.47695 9.08433 6.52115 9.09833 6.5783 9.1172C6.6927 9.15487 6.85843 9.2118 7.0591 9.28727C7.46203 9.4388 7.99757 9.66213 8.53763 9.95087C9.08177 10.2417 9.60524 10.5857 10.0016 10.9706C10.4009 11.3583 10.623 11.7399 10.671 12.1076L11.9931 11.9354C11.8918 11.1571 11.4472 10.5158 10.9305 10.0141C10.4108 9.5094 9.76883 9.09713 9.16623 8.775C8.5595 8.45067 7.96697 8.20427 7.5285 8.03933C7.30843 7.95653 7.12517 7.89353 6.9957 7.85087C6.9309 7.82947 6.87944 7.8132 6.8435 7.802C6.8255 7.7964 6.81137 7.79213 6.80137 7.78907C6.79637 7.7876 6.79237 7.7864 6.78943 7.78553C6.78797 7.78507 6.78684 7.78473 6.7859 7.78447C6.78544 7.78433 6.78503 7.7842 6.7847 7.78407C6.78457 7.78407 6.78437 7.784 6.78423 7.784C6.7841 7.78393 6.7839 7.78387 6.59572 8.4234ZM11.0848 11.4024C10.2233 11.7465 9.5327 12.0911 9.05483 12.3514C8.81577 12.4817 8.6295 12.5909 8.50137 12.6689C8.4373 12.7078 8.3877 12.7389 8.35324 12.7609C8.33604 12.7719 8.32257 12.7805 8.31304 12.7868C8.30824 12.7899 8.30437 12.7924 8.30157 12.7943C8.3001 12.7953 8.29897 12.796 8.29804 12.7967C8.2975 12.7969 8.2971 12.7972 8.29677 12.7975C8.29663 12.7975 8.29643 12.7977 8.2963 12.7977C8.29623 12.7978 8.29617 12.7979 8.2961 12.7979C8.29604 12.7979 8.2959 12.798 8.66537 13.3529C9.03483 13.9079 9.0347 13.9079 9.03463 13.908C9.03463 13.908 9.03457 13.9081 9.0345 13.9081C9.03444 13.9081 9.03437 13.9082 9.0343 13.9082C9.03424 13.9083 9.03417 13.9083 9.03417 13.9083C9.03423 13.9083 9.0345 13.9081 9.03503 13.9077C9.03603 13.9071 9.03804 13.9057 9.04097 13.9039C9.0469 13.9 9.05657 13.8937 9.0699 13.8852C9.0967 13.8682 9.13823 13.8421 9.1939 13.8082C9.30537 13.7405 9.4733 13.6417 9.69257 13.5223C10.1314 13.2833 10.7741 12.9623 11.5793 12.6406L11.0848 11.4024ZM19.3648 13.9109C19.974 12.9425 20.6186 12.4281 21.335 12.0965L20.7749 10.8865C19.8143 11.3312 18.9764 12.0243 18.2362 13.2009L19.3648 13.9109ZM15.2486 13.5762C16.0758 13.8182 17.0404 14.2075 17.6461 14.4653L18.1682 13.2385C17.5523 12.9763 16.5286 12.5615 15.623 12.2965L15.2486 13.5762ZM19.2204 8.18487C17.2695 9.08787 15.9455 10.3991 14.8381 12.6411L16.0336 13.2316C17.0215 11.2316 18.1358 10.1561 19.7805 9.39487L19.2204 8.18487ZM25.8018 7.19753C23.3 7.1112 21.1007 7.31453 19.2204 8.18487L19.7805 9.39487C21.3784 8.65527 23.3284 8.44633 25.7558 8.53007L25.8018 7.19753ZM26.3284 11.0561L26.445 7.88833L25.1126 7.83927L24.996 11.0071L26.3284 11.0561ZM21.335 12.0965C22.2 11.6962 23.344 11.6187 25.6392 11.6979L25.6852 10.3653C23.432 10.2876 21.9708 10.333 20.7749 10.8865L21.335 12.0965ZM18.2362 13.2009C18.2248 13.219 18.2079 13.2313 18.1915 13.2369C18.1765 13.2419 18.17 13.2392 18.1682 13.2385L17.6461 14.4653C18.2959 14.7419 19.0152 14.4664 19.3648 13.9109L18.2362 13.2009ZM16.5422 20.4586L16.8172 21.0942L18.0409 20.5647L17.7658 19.9291L16.5422 20.4586ZM16.7639 20.8749L16.9506 23.6103L18.2808 23.5196L18.0942 20.7841L16.7639 20.8749ZM17.5059 21.4917L20.3432 21.1623L20.1895 19.8379L17.3522 20.1673L17.5059 21.4917ZM18.0602 13.3869L16.5079 16.7454L17.7182 17.3048L19.2705 13.9464L18.0602 13.3869ZM16.4708 16.8462L16.3296 17.3531L17.614 17.7109L17.7552 17.204L16.4708 16.8462ZM16.8384 16.4177L13.9368 17.7299L14.4862 18.9447L17.3878 17.6325L16.8384 16.4177ZM14.3643 17.6884L11.4732 17.0073L11.1674 18.3051L14.0586 18.9862L14.3643 17.6884ZM13.5915 18.0921L12.6056 20.5843L13.8454 21.0747L14.8314 18.5825L13.5915 18.0921ZM17.7658 19.9291C17.4629 19.2289 17.4093 18.4459 17.614 17.7109L16.3296 17.3531C16.043 18.3821 16.118 19.4783 16.5422 20.4586L17.7658 19.9291Z" fill="#007AC5"/>
</svg>
