<svg width="32" height="32" viewBox="0 0 32 32" fill="none" xmlns="http://www.w3.org/2000/svg">
<path fill-rule="evenodd" clip-rule="evenodd" d="M8.36688 20.5023C1.12406 17.4474 3.98246 7.13623 9.01021 5.43256C11.0959 4.72581 13.3974 7.0705 13.3827 8.5263C13.3763 9.15576 13.0515 9.7695 12.7131 10.409C12.2688 11.2484 11.8011 12.1322 11.9997 13.154C12.3496 14.9541 12.7415 17.9913 11.7317 19.433C10.7217 20.8748 9.70615 21.0672 8.36688 20.5023ZM8.88501 19.2738C9.40681 19.4938 9.66315 19.4794 9.80375 19.4389C9.94808 19.3973 10.2298 19.2531 10.6396 18.6681C10.8881 18.3133 11.0573 17.5647 11.0423 16.4456C11.0284 15.3949 10.859 14.2736 10.6909 13.4084C10.4213 12.0216 10.9749 10.863 11.37 10.0988C11.438 9.96716 11.5001 9.8499 11.5573 9.74176C11.6893 9.49256 11.7953 9.29216 11.8891 9.0773C12.014 8.79096 12.0483 8.6213 12.0494 8.51283C12.0497 8.47823 12.0263 8.3019 11.8535 8.01163C11.6911 7.7391 11.4445 7.44876 11.1418 7.2021C10.4997 6.67883 9.87828 6.54621 9.43815 6.69536C7.56481 7.33016 5.80365 9.77456 5.40791 12.643C5.02823 15.3949 5.96865 18.0437 8.88501 19.2738Z" fill="#007AC5"/>
<path fill-rule="evenodd" clip-rule="evenodd" d="M22.8998 5.43256C27.9276 7.13623 30.786 17.4474 23.5432 20.5023C22.2039 21.0672 21.1883 20.8748 20.1784 19.433C19.1685 17.9913 19.5605 14.9541 19.9103 13.154C20.1089 12.1322 19.6413 11.2484 19.1969 10.409C18.8585 9.7695 18.5337 9.15576 18.5274 8.5263C18.5127 7.0705 20.8141 4.72581 22.8998 5.43256ZM22.1063 19.4389C22.2469 19.4794 22.5033 19.4938 23.025 19.2738C25.9414 18.0437 26.8818 15.3949 26.5021 12.643C26.1064 9.77456 24.3453 7.33016 22.4719 6.69536C22.0317 6.54621 21.4103 6.67883 20.7682 7.2021C20.4655 7.44876 20.2189 7.7391 20.0566 8.01163C19.8837 8.3019 19.8603 8.47823 19.8607 8.51283C19.8617 8.6213 19.8961 8.79096 20.021 9.0773C20.1147 9.29216 20.2208 9.49256 20.3527 9.74176C20.4099 9.8499 20.472 9.96716 20.5401 10.0988C20.9351 10.863 21.4887 12.0216 21.2192 13.4084C21.051 14.2736 20.8817 15.3949 20.8677 16.4456C20.8528 17.5647 21.022 18.3133 21.2705 18.6681C21.6803 19.2531 21.962 19.3973 22.1063 19.4389Z" fill="#007AC5"/>
<path d="M19.0792 15.1866C19.125 15.8516 19.1258 15.8515 19.1258 15.8515L19.1266 15.8515L19.128 15.8514L19.1306 15.8512L19.1343 15.8509L19.1362 15.8507C19.1362 15.8507 19.1294 15.8515 19.1199 15.853C19.1008 15.8561 19.0672 15.8625 19.0243 15.8747C18.9369 15.8994 18.8217 15.9448 18.7089 16.0252C18.5158 16.1627 18.2318 16.4681 18.2318 17.239V26.883C18.2318 26.883 18.2318 26.8831 17.5651 26.8831C16.8984 26.8831 16.8984 26.8827 16.8984 26.8827V17.239C16.8984 16.0614 17.3715 15.3407 17.9354 14.9391C18.2012 14.7499 18.4645 14.6474 18.661 14.5918C18.76 14.5638 18.8448 14.5468 18.9084 14.5365C18.9403 14.5314 18.9672 14.528 18.9882 14.5256C18.9988 14.5244 19.0079 14.5236 19.0154 14.5229L19.0256 14.522L19.0299 14.5217L19.0318 14.5216L19.0326 14.5215C19.0326 14.5215 19.0335 14.5214 19.0792 15.1866Z" fill="#007AC5"/>
<path d="M12.8267 15.1866C12.781 15.8516 12.7801 15.8515 12.7801 15.8515L12.7794 15.8515L12.7779 15.8514L12.7753 15.8512L12.7716 15.8509L12.7695 15.8507C12.7695 15.8507 12.7765 15.8515 12.786 15.853C12.8052 15.8561 12.8387 15.8625 12.8816 15.8747C12.969 15.8994 13.0842 15.9448 13.1971 16.0252C13.3902 16.1627 13.6742 16.4681 13.6742 17.239V26.883C13.6742 26.883 13.6742 26.8831 14.3409 26.8831C15.0075 26.8831 15.0075 26.8827 15.0075 26.8827V17.239C15.0075 16.0614 14.5344 15.3407 13.9705 14.9391C13.7048 14.7499 13.4415 14.6474 13.2449 14.5918C13.1459 14.5638 13.0611 14.5468 12.9975 14.5365C12.9656 14.5314 12.9387 14.528 12.9177 14.5256C12.9071 14.5244 12.8981 14.5236 12.8905 14.5229L12.8803 14.522L12.8761 14.5217L12.8742 14.5216L12.8733 14.5215C12.8733 14.5215 12.8724 14.5214 12.8267 15.1866Z" fill="#007AC5"/>
</svg>
