<svg width="33" height="32" viewBox="0 0 33 32" fill="none" xmlns="http://www.w3.org/2000/svg">
<path fill-rule="evenodd" clip-rule="evenodd" d="M11.8077 10.0812C12.5943 10.9387 13.9233 11.3065 16.3587 11.3586C16.4976 9.51929 17.2061 8.07036 18.2545 7.05329C19.42 5.92286 20.9656 5.36519 22.4989 5.36519C24.0322 5.36519 25.5778 5.92286 26.7433 7.05329C27.9166 8.19136 28.6641 9.87029 28.6641 12.0319V19.3652C28.6641 21.42 28.3219 23.566 27.2864 25.2191C26.2208 26.9202 24.4608 28.0319 21.8262 28.0319C19.1322 28.0319 17.2564 26.4331 15.5413 24.9533L15.4666 24.8889C13.7395 23.3983 12.1302 22.0095 9.842 21.6987C8.71993 21.7072 7.9646 22.05 7.43726 22.5194C6.89035 23.0062 6.53764 23.6753 6.31746 24.3938C6.09771 25.111 6.02168 25.84 6.00267 26.3983C5.99324 26.6754 5.998 26.9052 6.00494 27.0639C6.00841 27.1432 6.01241 27.2043 6.0154 27.2443C6.0169 27.2643 6.01815 27.279 6.01895 27.288L6.01979 27.2972L6.01986 27.2979C6.01984 27.2977 6.01982 27.2974 5.3566 27.3652C4.69338 27.433 4.69336 27.4326 4.69332 27.4324L4.69325 27.4316L4.69306 27.4297L4.69252 27.4241L4.69086 27.4061C4.68953 27.3912 4.68778 27.3702 4.6858 27.3439C4.68184 27.2911 4.677 27.2162 4.67288 27.1222C4.66467 26.9346 4.65933 26.6696 4.67011 26.3529C4.69154 25.7237 4.77723 24.8694 5.04264 24.0032C5.30762 23.1384 5.76352 22.2242 6.5508 21.5234C7.35093 20.8113 8.44293 20.3652 9.88473 20.3652C10.2201 20.3652 10.536 20.3728 10.8395 20.3801C11.4035 20.3937 11.9247 20.4062 12.4477 20.367C13.2175 20.3094 13.8523 20.1416 14.3769 19.7484C15.3811 18.9958 16.2515 17.199 16.3283 12.692C13.8489 12.6406 12.008 12.272 10.8252 10.9825C10.1828 10.2822 9.7862 9.36576 9.547 8.23196C9.30866 7.10236 9.21806 5.71519 9.21806 4.03186H10.5514C10.5514 5.68187 10.6416 6.96136 10.8516 7.95676C11.0607 8.94796 11.3799 9.61483 11.8077 10.0812ZM16.2445 23.7988C15.3723 23.0451 14.4395 22.239 13.3603 21.5909C13.9896 21.4686 14.6105 21.2396 15.1766 20.8153C16.0435 20.1656 16.6969 19.1263 17.1164 17.5302C18.2141 16.7895 19.1165 16.6331 19.9089 16.7203C20.7565 16.8135 21.5403 17.1885 22.4043 17.6265L22.5481 17.6996C23.3328 18.0988 24.2181 18.5491 25.1589 18.6676C25.8734 18.7576 26.5941 18.6573 27.3307 18.2881V19.3652C27.3307 21.3104 27.0002 23.1644 26.1565 24.5113C25.3429 25.8102 24.0173 26.6986 21.8262 26.6986C19.6945 26.6986 18.1741 25.464 16.4123 23.9438L16.2445 23.7988ZM27.3307 16.7162V12.0319C27.3307 10.1934 26.7036 8.87236 25.8149 8.01043C24.9185 7.14089 23.7149 6.69856 22.4989 6.69856C21.283 6.69856 20.0793 7.14089 19.1829 8.01043C18.2943 8.87236 17.6671 10.1934 17.6671 12.0319C17.6671 13.4948 17.5925 14.7493 17.4465 15.8226C18.3682 15.413 19.2323 15.3045 20.0547 15.3949C21.1759 15.5182 22.1629 16.0092 23.0072 16.4372L23.0674 16.4678C23.9281 16.9042 24.6219 17.2561 25.3255 17.3447C25.9191 17.4195 26.5615 17.3076 27.3307 16.7162Z" fill="#007AC5"/>
</svg>
