<svg width="32" height="32" viewBox="0 0 32 32" fill="none" xmlns="http://www.w3.org/2000/svg">
<path fill-rule="evenodd" clip-rule="evenodd" d="M10.668 5.34781C11.9764 5.44734 13.1426 6.05526 13.9696 6.97444L15.4154 5.52869L16.3582 6.47149L14.7314 8.09837C15.0566 8.75804 15.2394 9.50057 15.2394 10.2858C15.2394 11.834 15.7827 13.2553 16.689 14.3695L18.1965 12.862L19.1394 13.8048L17.6318 15.3124C18.746 16.2186 20.1674 16.762 21.7156 16.762C22.1524 16.762 22.576 16.8185 22.9794 16.9247L24.0906 15L25.2454 15.6667L24.2208 17.4414C25.685 18.3017 26.668 19.8932 26.668 21.7143C26.668 22.4393 26.5122 23.1278 26.2323 23.7484L27.9774 24.7559L27.3107 25.9106L25.5247 24.8794C24.6163 25.9715 23.2471 26.6667 21.7156 26.6667C21.5882 26.6667 21.4613 26.6652 21.3346 26.6624V28.6667H20.0013V26.5781C17.9532 26.3651 16.0172 25.7747 14.2642 24.8778L13.2453 26.6426L12.0906 25.976L13.103 24.2225C11.7868 23.4074 10.5947 22.4111 9.5615 21.2684L7.8061 23.0238L6.86324 22.081L8.70464 20.2396C7.61284 18.8146 6.74977 17.205 6.17051 15.4657L4.17383 16.0007L3.82874 14.7128L5.80137 14.1842C5.49635 12.9348 5.33464 11.6292 5.33464 10.2858C5.33464 9.83177 5.39572 9.39211 5.51012 8.97444L3.66797 7.91084L4.33464 6.75617L6.03832 7.73977C6.74777 6.55839 7.93597 5.69731 9.33464 5.42486V3.33337H10.668V5.34781ZM10.287 6.66671C8.2883 6.66671 6.66797 8.28704 6.66797 10.2858C6.66797 18.5963 13.405 25.3334 21.7156 25.3334C23.7143 25.3334 25.3346 23.713 25.3346 21.7143C25.3346 19.7156 23.7143 18.0953 21.7156 18.0953C17.4025 18.0953 13.906 14.5988 13.906 10.2858C13.906 8.28704 12.2858 6.66671 10.287 6.66671ZM10.0013 10C9.6331 10 9.33464 10.2985 9.33464 10.6667C9.33464 11.0349 9.6331 11.3334 10.0013 11.3334C10.3695 11.3334 10.668 11.0349 10.668 10.6667C10.668 10.2985 10.3695 10 10.0013 10ZM8.0013 10.6667C8.0013 9.56211 8.8967 8.66671 10.0013 8.66671C11.1059 8.66671 12.0013 9.56211 12.0013 10.6667C12.0013 11.7713 11.1059 12.6667 10.0013 12.6667C8.8967 12.6667 8.0013 11.7713 8.0013 10.6667ZM15.3346 20C15.3346 19.6318 15.6331 19.3334 16.0013 19.3334C16.3695 19.3334 16.668 19.6318 16.668 20C16.668 20.3682 16.3695 20.6667 16.0013 20.6667C15.6331 20.6667 15.3346 20.3682 15.3346 20ZM16.0013 18C14.8967 18 14.0013 18.8954 14.0013 20C14.0013 21.1046 14.8967 22 16.0013 22C17.1059 22 18.0013 21.1046 18.0013 20C18.0013 18.8954 17.1059 18 16.0013 18ZM12.668 16C12.668 16.7364 12.071 17.3334 11.3346 17.3334C10.5982 17.3334 10.0013 16.7364 10.0013 16C10.0013 15.2636 10.5982 14.6667 11.3346 14.6667C12.071 14.6667 12.668 15.2636 12.668 16ZM21.3346 22.6667C22.071 22.6667 22.668 22.0698 22.668 21.3334C22.668 20.597 22.071 20 21.3346 20C20.5982 20 20.0013 20.597 20.0013 21.3334C20.0013 22.0698 20.5982 22.6667 21.3346 22.6667Z" fill="#007AC5"/>
</svg>
