<svg width="34" height="34" viewBox="0 0 34 34" fill="none" xmlns="http://www.w3.org/2000/svg">
<path fill-rule="evenodd" clip-rule="evenodd" d="M11.1666 11.1664C11.4595 10.8735 11.9344 10.8735 12.2273 11.1664L17.0003 15.9393L21.7732 11.1664C22.0661 10.8735 22.541 10.8735 22.8339 11.1664C23.1268 11.4593 23.1268 11.9341 22.8339 12.227L18.0609 17L22.8339 21.773C23.1268 22.0659 23.1268 22.5407 22.8339 22.8336C22.541 23.1265 22.0661 23.1265 21.7732 22.8336L17.0003 18.0607L12.2273 22.8336C11.9344 23.1265 11.4595 23.1265 11.1666 22.8336C10.8737 22.5407 10.8737 22.0659 11.1666 21.773L15.9396 17L11.1666 12.227C10.8737 11.9341 10.8737 11.4593 11.1666 11.1664Z" fill="white"/>
</svg>
