<svg width="24" height="24" viewBox="0 0 24 24" fill="none" xmlns="http://www.w3.org/2000/svg">
<path d="M3.93642 2.66351C3.58495 2.31203 3.0151 2.31203 2.66363 2.66351C2.31216 3.01498 2.31216 3.58483 2.66363 3.9363L6.52723 7.7999H3.30002C2.80297 7.7999 2.40002 8.20285 2.40002 8.6999C2.40002 9.19696 2.80297 9.5999 3.30002 9.5999H8.70002C9.19708 9.5999 9.60002 9.19696 9.60002 8.6999V3.2999C9.60002 2.80285 9.19708 2.3999 8.70002 2.3999C8.20297 2.3999 7.80002 2.80285 7.80002 3.2999V6.52711L3.93642 2.66351Z" fill="white"/>
<path d="M16.2 3.2999C16.2 2.80285 15.7971 2.3999 15.3 2.3999C14.803 2.3999 14.4 2.80285 14.4 3.2999V8.6999C14.4 9.19696 14.803 9.5999 15.3 9.5999H20.7C21.1971 9.5999 21.6 9.19696 21.6 8.6999C21.6 8.20285 21.1971 7.7999 20.7 7.7999H17.4728L21.3364 3.9363C21.6879 3.58483 21.6879 3.01498 21.3364 2.66351C20.9849 2.31203 20.4151 2.31203 20.0636 2.66351L16.2 6.52711V3.2999Z" fill="white"/>
<path d="M3.93642 21.3363L7.80002 17.4727V20.6999C7.80002 21.197 8.20297 21.5999 8.70002 21.5999C9.19708 21.5999 9.60002 21.197 9.60002 20.6999V15.2999C9.60002 14.8028 9.19708 14.3999 8.70002 14.3999H3.30002C2.80297 14.3999 2.40002 14.8028 2.40002 15.2999C2.40002 15.797 2.80297 16.1999 3.30002 16.1999H6.52723L2.66363 20.0635C2.31216 20.415 2.31216 20.9848 2.66363 21.3363C3.0151 21.6878 3.58495 21.6878 3.93642 21.3363Z" fill="white"/>
<path d="M16.2 17.4727L20.0636 21.3363C20.4151 21.6878 20.9849 21.6878 21.3364 21.3363C21.6879 20.9848 21.6879 20.415 21.3364 20.0635L17.4728 16.1999H20.7C21.1971 16.1999 21.6 15.797 21.6 15.2999C21.6 14.8028 21.1971 14.3999 20.7 14.3999H15.3C14.803 14.3999 14.4 14.8028 14.4 15.2999V20.6999C14.4 21.197 14.803 21.5999 15.3 21.5999C15.7971 21.5999 16.2 21.197 16.2 20.6999V17.4727Z" fill="white"/>
</svg>
