<svg width="16" height="17" viewBox="0 0 16 17" fill="none" xmlns="http://www.w3.org/2000/svg">
<path d="M5.02426 4.67574C4.78995 4.44142 4.41005 4.44142 4.17574 4.67574C3.94142 4.91005 3.94142 5.28995 4.17574 5.52426L7.15147 8.5L4.17574 11.4757C3.94142 11.7101 3.94142 12.0899 4.17574 12.3243C4.41005 12.5586 4.78995 12.5586 5.02426 12.3243L8 9.34853L10.9757 12.3243C11.2101 12.5586 11.5899 12.5586 11.8243 12.3243C12.0586 12.0899 12.0586 11.7101 11.8243 11.4757L8.84853 8.5L11.8243 5.52426C12.0586 5.28995 12.0586 4.91005 11.8243 4.67574C11.5899 4.44142 11.2101 4.44142 10.9757 4.67574L8 7.65147L5.02426 4.67574Z" fill="#007AC5"/>
</svg>
