<svg width="20" height="20" viewBox="0 0 20 20" fill="none" xmlns="http://www.w3.org/2000/svg">
<g clip-path="url(#clip0_6861_4187)">
<path d="M10 20C4.478 20 0 15.522 0 10C0 4.478 4.478 0 10 0C15.522 0 20 4.478 20 10C20 15.522 15.522 20 10 20Z" fill="#25D366"/>
<path fill-rule="evenodd" clip-rule="evenodd" d="M14.6783 5.34402C13.4383 4.10202 11.7863 3.41802 10.0283 3.41602C6.40634 3.41602 3.45634 6.36402 3.45634 9.98802C3.45634 11.146 3.75834 12.278 4.33434 13.274L3.40234 16.68L6.88634 15.766C7.84634 16.29 8.92634 16.566 10.0263 16.566H10.0283C13.6503 16.566 16.5983 13.618 16.6003 9.99402C16.6023 8.23802 15.9203 6.58602 14.6783 5.34402ZM10.0303 15.456H10.0283C9.04834 15.456 8.08634 15.192 7.24834 14.694L7.04834 14.576L4.98034 15.118L5.53234 13.102L5.40234 12.896C4.85634 12.026 4.56634 11.022 4.56634 9.98802C4.56834 6.97601 7.01834 4.52602 10.0323 4.52602C11.4923 4.52602 12.8623 5.09602 13.8943 6.12802C14.9263 7.16002 15.4943 8.53402 15.4923 9.99202C15.4923 13.006 13.0403 15.456 10.0303 15.456ZM13.0263 11.364C12.8623 11.282 12.0543 10.884 11.9043 10.83C11.7543 10.776 11.6443 10.748 11.5343 10.912C11.4243 11.076 11.1103 11.446 11.0143 11.556C10.9183 11.666 10.8223 11.68 10.6583 11.598C10.4943 11.516 9.96434 11.342 9.33834 10.782C8.85034 10.346 8.52034 9.80802 8.42434 9.64402C8.32834 9.48002 8.41434 9.39002 8.49634 9.30801C8.57034 9.23401 8.66034 9.11602 8.74234 9.02002C8.82434 8.92402 8.85234 8.85602 8.90634 8.74602C8.96034 8.63602 8.93434 8.54002 8.89234 8.45802C8.85034 8.37602 8.52234 7.56802 8.38634 7.23802C8.25234 6.91802 8.11834 6.96202 8.01634 6.95602C7.92034 6.95202 7.81034 6.95002 7.70234 6.95002C7.59234 6.95002 7.41434 6.99202 7.26434 7.15602C7.11434 7.32002 6.69034 7.71802 6.69034 8.52602C6.69034 9.33402 7.27834 10.116 7.36034 10.224C7.44234 10.334 8.51834 11.992 10.1663 12.704C10.5583 12.874 10.8643 12.974 11.1023 13.05C11.4963 13.176 11.8543 13.158 12.1363 13.116C12.4523 13.068 13.1083 12.718 13.2443 12.336C13.3803 11.952 13.3803 11.624 13.3403 11.556C13.3003 11.488 13.1903 11.448 13.0263 11.364Z" fill="white"/>
</g>
<defs>
<clipPath id="clip0_6861_4187">
<rect width="20" height="20" fill="white"/>
</clipPath>
</defs>
</svg>
