<svg width="32" height="32" viewBox="0 0 32 32" fill="none" xmlns="http://www.w3.org/2000/svg">
<path fill-rule="evenodd" clip-rule="evenodd" d="M9.33464 5.00033C8.59824 5.00033 8.0013 5.59728 8.0013 6.33366V25.0003C8.0013 25.7367 8.59824 26.3337 9.33464 26.3337H16.668V27.667H9.33464C7.8619 27.667 6.66797 26.4731 6.66797 25.0003V6.33366C6.66797 4.8609 7.8619 3.66699 9.33464 3.66699H22.668C24.1407 3.66699 25.3346 4.8609 25.3346 6.33366V25.0003C25.3346 26.4731 24.1407 27.667 22.668 27.667H20.668V26.3337H22.668C23.4044 26.3337 24.0013 25.7367 24.0013 25.0003V6.33366C24.0013 5.59728 23.4044 5.00033 22.668 5.00033H9.33464Z" fill="#007AC5"/>
<path fill-rule="evenodd" clip-rule="evenodd" d="M12 8.33366C12 7.96546 12.2985 7.66699 12.6667 7.66699H19.3333C19.7015 7.66699 20 7.96546 20 8.33366C20 8.70186 19.7015 9.00033 19.3333 9.00033H12.6667C12.2985 9.00033 12 8.70186 12 8.33366Z" fill="#007AC5"/>
<path fill-rule="evenodd" clip-rule="evenodd" d="M9.33203 12.3337C9.33203 11.9655 9.6305 11.667 9.9987 11.667H21.9987C22.3669 11.667 22.6654 11.9655 22.6654 12.3337C22.6654 12.7019 22.3669 13.0003 21.9987 13.0003H9.9987C9.6305 13.0003 9.33203 12.7019 9.33203 12.3337Z" fill="#007AC5"/>
<path fill-rule="evenodd" clip-rule="evenodd" d="M9.33203 14.9997C9.33203 14.6315 9.6305 14.333 9.9987 14.333H21.9987C22.3669 14.333 22.6654 14.6315 22.6654 14.9997C22.6654 15.3679 22.3669 15.6663 21.9987 15.6663H9.9987C9.6305 15.6663 9.33203 15.3679 9.33203 14.9997Z" fill="#007AC5"/>
<path fill-rule="evenodd" clip-rule="evenodd" d="M9.33203 17.6667C9.33203 17.2985 9.6305 17 9.9987 17H21.9987C22.3669 17 22.6654 17.2985 22.6654 17.6667C22.6654 18.0349 22.3669 18.3333 21.9987 18.3333H9.9987C9.6305 18.3333 9.33203 18.0349 9.33203 17.6667Z" fill="#007AC5"/>
<path fill-rule="evenodd" clip-rule="evenodd" d="M18.6667 24.333C19.4031 24.333 20 23.7361 20 22.9997C20 22.2633 19.4031 21.6663 18.6667 21.6663C17.9303 21.6663 17.3333 22.2633 17.3333 22.9997C17.3333 23.7361 17.9303 24.333 18.6667 24.333ZM18.6667 25.6663C20.1394 25.6663 21.3333 24.4724 21.3333 22.9997C21.3333 21.5269 20.1394 20.333 18.6667 20.333C17.1939 20.333 16 21.5269 16 22.9997C16 24.4724 17.1939 25.6663 18.6667 25.6663Z" fill="#007AC5"/>
<path fill-rule="evenodd" clip-rule="evenodd" d="M18.0013 24.333H16.668V30.333L18.668 29.333L20.668 30.333V24.333H19.3346V28.1756L18.668 27.8423L18.0013 28.1756V24.333Z" fill="#007AC5"/>
</svg>
