<svg width="32" height="32" viewBox="0 0 32 32" fill="none" xmlns="http://www.w3.org/2000/svg">
<path fill-rule="evenodd" clip-rule="evenodd" d="M9.33366 5.00033C8.59726 5.00033 8.00033 5.59728 8.00033 6.33366V25.0003C8.00033 25.7367 8.59726 26.3337 9.33366 26.3337H16.667V27.667H9.33366C7.86093 27.667 6.66699 26.4731 6.66699 25.0003V6.33366C6.66699 4.8609 7.86093 3.66699 9.33366 3.66699H22.667C24.1397 3.66699 25.3337 4.8609 25.3337 6.33366V25.0003C25.3337 26.4731 24.1397 27.667 22.667 27.667H20.667V26.3337H22.667C23.4034 26.3337 24.0003 25.7367 24.0003 25.0003V6.33366C24.0003 5.59728 23.4034 5.00033 22.667 5.00033H9.33366Z" fill="white"/>
<path fill-rule="evenodd" clip-rule="evenodd" d="M12 8.33366C12 7.96546 12.2985 7.66699 12.6667 7.66699H19.3333C19.7015 7.66699 20 7.96546 20 8.33366C20 8.70186 19.7015 9.00033 19.3333 9.00033H12.6667C12.2985 9.00033 12 8.70186 12 8.33366Z" fill="white"/>
<path fill-rule="evenodd" clip-rule="evenodd" d="M9.33301 12.3337C9.33301 11.9655 9.63147 11.667 9.99967 11.667H21.9997C22.3679 11.667 22.6663 11.9655 22.6663 12.3337C22.6663 12.7019 22.3679 13.0003 21.9997 13.0003H9.99967C9.63147 13.0003 9.33301 12.7019 9.33301 12.3337Z" fill="white"/>
<path fill-rule="evenodd" clip-rule="evenodd" d="M9.33301 14.9997C9.33301 14.6315 9.63147 14.333 9.99967 14.333H21.9997C22.3679 14.333 22.6663 14.6315 22.6663 14.9997C22.6663 15.3679 22.3679 15.6663 21.9997 15.6663H9.99967C9.63147 15.6663 9.33301 15.3679 9.33301 14.9997Z" fill="white"/>
<path fill-rule="evenodd" clip-rule="evenodd" d="M9.33301 17.6667C9.33301 17.2985 9.63147 17 9.99967 17H21.9997C22.3679 17 22.6663 17.2985 22.6663 17.6667C22.6663 18.0349 22.3679 18.3333 21.9997 18.3333H9.99967C9.63147 18.3333 9.33301 18.0349 9.33301 17.6667Z" fill="white"/>
<path fill-rule="evenodd" clip-rule="evenodd" d="M18.6667 24.333C19.4031 24.333 20 23.7361 20 22.9997C20 22.2633 19.4031 21.6663 18.6667 21.6663C17.9303 21.6663 17.3333 22.2633 17.3333 22.9997C17.3333 23.7361 17.9303 24.333 18.6667 24.333ZM18.6667 25.6663C20.1394 25.6663 21.3333 24.4724 21.3333 22.9997C21.3333 21.5269 20.1394 20.333 18.6667 20.333C17.1939 20.333 16 21.5269 16 22.9997C16 24.4724 17.1939 25.6663 18.6667 25.6663Z" fill="white"/>
<path fill-rule="evenodd" clip-rule="evenodd" d="M18.0003 24.333H16.667V30.333L18.667 29.333L20.667 30.333V24.333H19.3337V28.1756L18.667 27.8423L18.0003 28.1756V24.333Z" fill="white"/>
</svg>
