<svg width="328" height="307" viewBox="0 0 328 307" fill="none" xmlns="http://www.w3.org/2000/svg">
<path d="M47.2138 85.8243L48.5943 88.619L51.6806 89.0677L49.4472 91.243L49.9748 94.3149L47.2138 92.8647L44.4527 94.3149L44.9804 91.243L42.7461 89.0677L45.8333 88.619L47.2138 85.8243Z" fill="#E4EEF4"/>
<path d="M323.534 217.398L324.915 220.192L328.001 220.641L325.768 222.816L326.295 225.888L323.534 224.438L320.773 225.888L321.3 222.816L319.066 220.641L322.154 220.192L323.534 217.398Z" fill="#E4EEF4"/>
<path d="M268.804 298.51L270.184 301.304L273.271 301.752L271.037 303.928L271.565 307L268.804 305.55L266.043 307L266.57 303.928L264.336 301.752L267.423 301.304L268.804 298.51Z" fill="#E4EEF4"/>
<path d="M143.595 36.2673L144.107 37.3046L145.253 37.4709C145.539 37.5127 145.653 37.8633 145.446 38.0655L144.617 38.8734L144.812 40.0139C144.861 40.2988 144.562 40.5155 144.307 40.3816L143.282 39.8433L142.256 40.3816C142 40.5164 141.701 40.2988 141.751 40.0139L141.946 38.8734L141.117 38.0655C140.911 37.8642 141.024 37.5127 141.31 37.4709L142.456 37.3046L142.968 36.2673C143.097 36.0079 143.467 36.0079 143.595 36.2673Z" fill="#E4EEF4"/>
<path d="M2.58321 285.237L3.09546 286.275L4.2412 286.441C4.52721 286.483 4.64161 286.834 4.43414 287.036L3.60515 287.844L3.80066 288.984C3.84932 289.269 3.55051 289.486 3.29524 289.352L2.26988 288.814L1.24452 289.352C0.988395 289.486 0.689582 289.269 0.7391 288.984L0.934609 287.844L0.105614 287.036C-0.100994 286.834 0.0125564 286.483 0.298564 286.441L1.4443 286.275L1.95655 285.237C2.08547 284.978 2.45514 284.978 2.58321 285.237Z" fill="#E4EEF4"/>
<path d="M25.6153 25.3028L26.1276 26.3401L27.2733 26.5064C27.5593 26.5482 27.6737 26.8989 27.4662 27.101L26.6373 27.9089L26.8328 29.0494C26.8814 29.3344 26.5826 29.551 26.3265 29.4163L25.3011 28.878L24.2766 29.4163C24.0205 29.551 23.7217 29.3335 23.7704 29.0494L23.9659 27.9089L23.1369 27.101C22.9303 26.8997 23.0438 26.5482 23.3298 26.5064L24.4755 26.3401L24.9878 25.3028C25.1176 25.0434 25.4872 25.0434 25.6153 25.3028Z" fill="#E4EEF4"/>
<path d="M24.2307 230.907C24.2307 231.532 23.7236 232.039 23.0978 232.039C22.472 232.039 21.9648 231.532 21.9648 230.907C21.9648 230.281 22.472 229.775 23.0978 229.775C23.7227 229.775 24.2307 230.281 24.2307 230.907Z" fill="#E4EEF4"/>
<path d="M186.051 88.9354C186.051 89.5607 185.544 90.0674 184.918 90.0674C184.292 90.0674 183.785 89.5607 183.785 88.9354C183.785 88.3101 184.292 87.8033 184.918 87.8033C185.544 87.8033 186.051 88.3101 186.051 88.9354Z" fill="#E4EEF4"/>
<path d="M127.172 26.2403C127.172 26.8656 126.665 27.3723 126.039 27.3723C125.413 27.3723 124.906 26.8656 124.906 26.2403C124.906 25.615 125.413 25.1083 126.039 25.1083C126.665 25.1083 127.172 25.6159 127.172 26.2403Z" fill="#E4EEF4"/>
<path d="M128.992 302.717C132.364 301.921 134.452 298.545 133.656 295.176C132.86 291.807 129.481 289.72 126.109 290.516C122.737 291.311 120.649 294.688 121.446 298.057C122.242 301.426 125.621 303.512 128.992 302.717Z" fill="#C2E8FF"/>
<path d="M125.371 292.985C124.04 292.985 122.802 293.412 121.794 294.145C121.461 294.913 121.273 295.758 121.273 296.645C121.273 300.108 124.082 302.906 127.549 302.906C128.718 302.906 129.82 302.582 130.759 302.02C130.75 302.011 130.75 302.011 130.759 302.011C131.228 301.141 131.493 300.152 131.493 299.094C131.493 295.723 128.752 292.985 125.371 292.985Z" fill="#C2E8FF"/>
<path d="M76.7755 187.678H24.8203V164.24L76.7755 102.532H101.633V165.57H114.516V187.678H101.633V206.848H76.7755V187.678ZM76.7755 165.57V133.291L49.3222 165.57H76.7755Z" fill="#007AC5"/>
<path d="M123.41 155.145C123.41 135.649 126.922 122.007 133.948 114.217C140.974 106.427 151.674 102.532 166.053 102.532C172.96 102.532 178.633 103.385 183.067 105.086C187.501 106.789 191.12 109.005 193.92 111.733C196.72 114.462 198.926 117.33 200.537 120.338C202.148 123.346 203.443 126.857 204.423 130.869C206.336 138.518 207.293 146.494 207.293 154.796C207.293 173.406 204.142 187.027 197.84 195.655C191.538 204.284 180.685 208.597 165.281 208.597C156.644 208.597 149.666 207.22 144.345 204.469C139.023 201.718 134.657 197.683 131.251 192.366C128.775 188.589 126.85 183.422 125.475 176.869C124.097 170.316 123.41 163.075 123.41 155.145ZM151.698 155.215C151.698 168.275 152.854 177.196 155.164 181.977C157.475 186.758 160.824 189.148 165.212 189.148C168.106 189.148 170.615 188.134 172.739 186.105C174.863 184.076 176.427 180.87 177.431 176.485C178.435 172.101 178.937 165.268 178.937 155.985C178.937 142.367 177.781 133.213 175.471 128.525C173.16 123.837 169.695 121.493 165.072 121.493C160.357 121.493 156.95 123.885 154.849 128.665C152.749 133.446 151.698 142.296 151.698 155.215Z" fill="#007AC5"/>
<path d="M268.072 187.678H216.117V164.24L268.072 102.532H292.929V165.57H305.813V187.678H292.929V206.848H268.072V187.678ZM268.072 165.57V133.291L240.62 165.57H268.072Z" fill="#007AC5"/>
<g opacity="0.3">
<path d="M122.263 66.5203C122.263 67.3989 121.55 68.1112 120.67 68.1112C119.791 68.1112 119.078 67.3989 119.078 66.5203C119.078 65.6416 119.791 64.9293 120.67 64.9293C121.55 64.9293 122.263 65.6416 122.263 66.5203Z" fill="#007AC5"/>
<path d="M12.9928 127.799C13.6166 127.799 14.1223 127.294 14.1223 126.671C14.1223 126.047 13.6166 125.542 12.9928 125.542C12.369 125.542 11.8633 126.047 11.8633 126.671C11.8633 127.294 12.369 127.799 12.9928 127.799Z" fill="#007AC5"/>
<path d="M199.186 292.248C200.079 292.248 200.803 291.525 200.803 290.633C200.803 289.741 200.079 289.018 199.186 289.018C198.294 289.018 197.57 289.741 197.57 290.633C197.57 291.525 198.294 292.248 199.186 292.248Z" fill="#007AC5"/>
<path d="M237.985 226.645C238.609 226.645 239.115 226.139 239.115 225.516C239.115 224.893 238.609 224.387 237.985 224.387C237.361 224.387 236.855 224.893 236.855 225.516C236.855 226.139 237.361 226.645 237.985 226.645Z" fill="#007AC5"/>
<path d="M312.837 23.8679C312.837 24.4915 312.332 24.9965 311.708 24.9965C311.084 24.9965 310.578 24.4915 310.578 23.8679C310.578 23.2443 311.084 22.7393 311.708 22.7393C312.332 22.7393 312.837 23.2443 312.837 23.8679Z" fill="#007AC5"/>
<path d="M98.1887 1.1286C98.1887 1.75219 97.6833 2.25721 97.0592 2.25721C96.4351 2.25721 95.9297 1.75219 95.9297 1.1286C95.9297 0.505013 96.4351 0 97.0592 0C97.6833 0 98.1887 0.505013 98.1887 1.1286Z" fill="#007AC5"/>
<path d="M187.782 60.2486C188.406 60.2486 188.911 59.7432 188.911 59.1199C188.911 58.4966 188.406 57.9913 187.782 57.9913C187.158 57.9913 186.652 58.4966 186.652 59.1199C186.652 59.7432 187.158 60.2486 187.782 60.2486Z" fill="#007AC5"/>
</g>
<path d="M71.2761 60.2527C81.607 60.2527 89.9818 51.8847 89.9818 41.5621C89.9818 31.2395 81.607 22.8715 71.2761 22.8715C60.9452 22.8715 52.5703 31.2395 52.5703 41.5621C52.5703 51.8847 60.9452 60.2527 71.2761 60.2527Z" fill="#007AC5"/>
<path opacity="0.7" d="M71.2761 60.2527C81.607 60.2527 89.9818 51.8847 89.9818 41.5621C89.9818 31.2395 81.607 22.8715 71.2761 22.8715C60.9452 22.8715 52.5703 31.2395 52.5703 41.5621C52.5703 51.8847 60.9452 60.2527 71.2761 60.2527Z" fill="white"/>
<path opacity="0.2" d="M64.8277 27.4601C62.2058 27.4601 59.7171 28.0018 57.4504 28.97C54.4195 32.291 52.5703 36.7141 52.5703 41.5629C52.5703 51.8825 60.9431 60.2485 71.2709 60.2485C73.9014 60.2485 76.408 59.7068 78.6841 58.73C78.6841 58.73 78.6841 58.73 78.6841 58.7215C81.697 55.3996 83.5368 50.9944 83.5368 46.155C83.5377 35.8261 75.1649 27.4601 64.8277 27.4601Z" fill="#007AC5"/>
<path opacity="0.2" d="M62.9709 32.4019C62.9709 33.3454 62.2051 34.1106 61.2609 34.1106C60.3166 34.1106 59.5508 33.3454 59.5508 32.4019C59.5508 31.4584 60.3166 30.6932 61.2609 30.6932C62.2051 30.6932 62.9709 31.4584 62.9709 32.4019Z" fill="#007AC5"/>
<path opacity="0.2" d="M83.0842 30.6932C83.0842 31.6367 82.3184 32.4019 81.3741 32.4019C80.4299 32.4019 79.6641 31.6367 79.6641 30.6932C79.6641 29.7497 80.4299 28.9845 81.3741 28.9845C82.3184 28.9854 83.0842 29.7497 83.0842 30.6932Z" fill="#007AC5"/>
<path opacity="0.2" d="M79.6636 42.8758C79.6636 44.4199 78.4112 45.6722 76.865 45.6722C75.3197 45.6722 74.0664 44.4199 74.0664 42.8758C74.0664 41.3318 75.3189 40.0795 76.865 40.0795C78.4103 40.0795 79.6636 41.3318 79.6636 42.8758Z" fill="#007AC5"/>
<path opacity="0.2" d="M70.7696 50.8478C70.7696 52.9122 69.0946 54.585 67.0294 54.585C64.9633 54.585 63.2891 52.9113 63.2891 50.8478C63.2891 48.7833 64.9641 47.1105 67.0294 47.1105C69.0946 47.1105 70.7696 48.7842 70.7696 50.8478Z" fill="#007AC5"/>
<path d="M292.975 267.063C295.058 258.248 289.595 249.414 280.772 247.333C271.95 245.251 263.109 250.71 261.026 259.525C258.943 268.341 264.406 277.174 273.228 279.256C282.051 281.337 290.891 275.879 292.975 267.063Z" fill="#007AC5"/>
<path opacity="0.3" d="M292.975 267.063C295.058 258.248 289.595 249.414 280.772 247.333C271.95 245.251 263.109 250.71 261.026 259.525C258.943 268.341 264.406 277.174 273.228 279.256C282.051 281.337 290.891 275.879 292.975 267.063Z" fill="white"/>
<path opacity="0.4" d="M287.36 250.544C285.867 250.091 284.276 249.851 282.632 249.851C273.566 249.851 266.215 257.196 266.215 266.254C266.215 271.388 268.57 275.961 272.268 278.972C273.761 279.425 275.352 279.664 276.997 279.664C286.063 279.664 293.413 272.319 293.413 263.262C293.413 258.129 291.057 253.546 287.36 250.544Z" fill="#007AC5"/>
<path d="M261.319 268.125C243.788 276.367 256.866 282.72 281.563 273.852C304.43 265.64 313.124 255.281 292.706 258.491C293.76 262.849 265.12 273.999 261.319 268.125Z" fill="#007AC5"/>
<path opacity="0.2" d="M287.155 102.53C264.197 118.03 234.478 138.469 226.274 187.674H224.523C232.506 139.067 261.141 118.09 284.107 102.53H287.155Z" fill="#1C1C1C"/>
<path d="M168.418 256.454C153.93 256.455 139.553 249.918 132.572 239.234C128.258 232.632 123.249 218.803 138.169 200.353L139.497 201.426C128.943 214.477 126.991 227.573 134.002 238.302C142.535 251.361 162.685 257.927 179.874 253.254C197.486 248.466 208.178 233.159 209.21 211.26C212.741 136.355 252.567 113.281 281.648 96.433C299.715 85.9659 312.769 78.4026 309.899 62.4486C309.502 60.2349 308.618 58.7053 307.199 57.7729C303.483 55.3263 296.226 57.0171 287.824 58.9741C271.341 62.8103 248.768 68.0652 235.321 45.2107L236.793 44.3457C249.604 66.1185 270.582 61.2364 287.436 57.3114C296.221 55.2675 303.809 53.5008 308.138 56.3466C309.969 57.5511 311.096 59.4484 311.581 62.1466C314.662 79.2778 300.471 87.4997 282.504 97.9088C253.763 114.56 214.402 137.364 210.915 211.339C209.846 234.027 198.696 249.904 180.322 254.9C176.45 255.953 172.428 256.453 168.418 256.454Z" fill="#007AC5"/>
<path opacity="0.2" d="M168.418 256.454C153.93 256.455 139.553 249.918 132.572 239.234C128.258 232.632 123.249 218.803 138.169 200.353L139.497 201.426C128.943 214.477 126.991 227.573 134.002 238.302C142.535 251.361 162.685 257.927 179.874 253.254C197.486 248.466 208.178 233.159 209.21 211.26C212.741 136.355 252.567 113.281 281.648 96.433C299.715 85.9659 312.769 78.4026 309.899 62.4486C309.502 60.2349 308.618 58.7053 307.199 57.7729C303.483 55.3263 296.226 57.0171 287.824 58.9741C271.341 62.8103 248.768 68.0652 235.321 45.2107L236.793 44.3457C249.604 66.1185 270.582 61.2364 287.436 57.3114C296.221 55.2675 303.809 53.5008 308.138 56.3466C309.969 57.5511 311.096 59.4484 311.581 62.1466C314.662 79.2778 300.471 87.4997 282.504 97.9088C253.763 114.56 214.402 137.364 210.915 211.339C209.846 234.027 198.696 249.904 180.322 254.9C176.45 255.953 172.428 256.453 168.418 256.454Z" fill="white"/>
<path d="M217.711 25.0024C223.563 24.8958 229.307 26.8229 229.307 26.8229C229.307 26.8229 238.668 42.8358 239.81 46.5005C239.416 50.1175 233.308 56.0472 233.308 56.0472L217.711 25.0024Z" fill="#007AC5"/>
<path opacity="0.3" d="M217.711 25.0024C223.563 24.8958 229.307 26.8229 229.307 26.8229C229.307 26.8229 238.668 42.8358 239.81 46.5005C239.416 50.1175 233.308 56.0472 233.308 56.0472L217.711 25.0024Z" fill="white"/>
<path d="M245.528 102.788C241.997 98.3114 238.53 93.751 235.659 88.8109C234.942 87.5765 234.263 86.3191 233.62 85.0446C233.254 84.3203 232.901 83.5901 232.558 82.8548C232.258 82.2124 231.596 81.2664 231.53 80.5652C230.504 69.7551 234.208 61.7977 230.652 53.1204L216.59 58.6115C216.59 58.6115 217.786 74.0708 220.515 83.3188C222.209 89.0566 226.043 94.0239 229.739 98.6203C230.894 100.059 232.009 101.529 233.162 102.969C234.254 104.332 235.477 105.583 236.572 106.939C238.234 108.998 238.787 110.962 237.524 113.389C237.456 113.519 237.386 113.648 237.313 113.776C236.954 114.408 238.633 115.124 239.687 113.794C241.431 111.592 241.157 111.728 242.643 109.85C243.545 108.71 244.582 107.479 245.477 106.41C246.351 105.366 246.37 103.856 245.528 102.788Z" fill="#007AC5"/>
<path opacity="0.7" d="M245.528 102.788C241.997 98.3114 238.53 93.751 235.659 88.8109C234.942 87.5765 234.263 86.3191 233.62 85.0446C233.254 84.3203 232.901 83.5901 232.558 82.8548C232.258 82.2124 231.596 81.2664 231.53 80.5652C230.504 69.7551 234.208 61.7977 230.652 53.1204L216.59 58.6115C216.59 58.6115 217.786 74.0708 220.515 83.3188C222.209 89.0566 226.043 94.0239 229.739 98.6203C230.894 100.059 232.009 101.529 233.162 102.969C234.254 104.332 235.477 105.583 236.572 106.939C238.234 108.998 238.787 110.962 237.524 113.389C237.456 113.519 237.386 113.648 237.313 113.776C236.954 114.408 238.633 115.124 239.687 113.794C241.431 111.592 241.157 111.728 242.643 109.85C243.545 108.71 244.582 107.479 245.477 106.41C246.351 105.366 246.37 103.856 245.528 102.788Z" fill="white"/>
<path opacity="0.3" d="M242.088 98.3396C240.206 100.613 236.378 103.562 234.691 104.757C235.059 105.166 235.422 105.583 235.787 106C239.26 103.734 242.006 100.793 243.047 99.5987C242.725 99.185 242.407 98.7619 242.088 98.3396Z" fill="#007AC5"/>
<path opacity="0.3" d="M245.524 102.79C245.492 102.746 245.458 102.71 245.425 102.666C244.833 103.283 244.415 104.267 244.345 105.371C244.289 106.133 244.417 106.831 244.667 107.376C244.951 107.047 245.217 106.721 245.477 106.411C246.355 105.367 246.367 103.858 245.524 102.79Z" fill="#007AC5"/>
<path d="M214.368 35.241C212.897 37.3788 211.163 39.4858 208.925 41.3779C207.815 42.3291 206.547 43.1898 205.154 43.9201C204.452 44.2783 203.713 44.5889 202.949 44.8456L202.373 45.0307L202.187 45.0888C202.052 45.1297 201.916 45.1664 201.779 45.1988C201.522 45.2568 201.263 45.2961 201.034 45.3148C200.109 45.3848 199.439 45.2534 198.887 45.1161C197.797 44.8192 197.068 44.4225 196.379 44.0378C195.701 43.6462 195.105 43.2453 194.54 42.8315C193.429 41.9862 192.423 41.1374 191.486 40.2314C189.599 38.4314 187.926 36.5649 186.372 34.486C185.663 33.5383 185.858 32.1964 186.806 31.4892C187.538 30.9424 188.505 30.9339 189.234 31.3937L189.298 31.4355C191.313 32.7133 193.346 34.0612 195.329 35.2674C196.331 35.8577 197.309 36.4515 198.271 36.9138C198.744 37.1527 199.208 37.3702 199.626 37.5246C200.034 37.6833 200.44 37.7737 200.546 37.7524C200.59 37.7498 200.537 37.6893 200.223 37.7004C200.147 37.7046 200.039 37.7149 199.93 37.7387C199.867 37.7507 199.806 37.7669 199.744 37.7865C199.685 37.8061 199.769 37.7703 199.774 37.7652L200.057 37.621C200.432 37.4299 200.792 37.1911 201.158 36.948C201.889 36.454 202.585 35.827 203.295 35.1395C204.7 33.7447 206.052 32.0087 207.48 30.2036L207.499 30.1789C208.96 28.3294 211.646 28.0147 213.497 29.4751C215.27 30.8733 215.626 33.406 214.368 35.241Z" fill="#007AC5"/>
<path opacity="0.7" d="M214.368 35.241C212.897 37.3788 211.163 39.4858 208.925 41.3779C207.815 42.3291 206.547 43.1898 205.154 43.9201C204.452 44.2783 203.713 44.5889 202.949 44.8456L202.373 45.0307L202.187 45.0888C202.052 45.1297 201.916 45.1664 201.779 45.1988C201.522 45.2568 201.263 45.2961 201.034 45.3148C200.109 45.3848 199.439 45.2534 198.887 45.1161C197.797 44.8192 197.068 44.4225 196.379 44.0378C195.701 43.6462 195.105 43.2453 194.54 42.8315C193.429 41.9862 192.423 41.1374 191.486 40.2314C189.599 38.4314 187.926 36.5649 186.372 34.486C185.663 33.5383 185.858 32.1964 186.806 31.4892C187.538 30.9424 188.505 30.9339 189.234 31.3937L189.298 31.4355C191.313 32.7133 193.346 34.0612 195.329 35.2674C196.331 35.8577 197.309 36.4515 198.271 36.9138C198.744 37.1527 199.208 37.3702 199.626 37.5246C200.034 37.6833 200.44 37.7737 200.546 37.7524C200.59 37.7498 200.537 37.6893 200.223 37.7004C200.147 37.7046 200.039 37.7149 199.93 37.7387C199.867 37.7507 199.806 37.7669 199.744 37.7865C199.685 37.8061 199.769 37.7703 199.774 37.7652L200.057 37.621C200.432 37.4299 200.792 37.1911 201.158 36.948C201.889 36.454 202.585 35.827 203.295 35.1395C204.7 33.7447 206.052 32.0087 207.48 30.2036L207.499 30.1789C208.96 28.3294 211.646 28.0147 213.497 29.4751C215.27 30.8733 215.626 33.406 214.368 35.241Z" fill="white"/>
<path d="M183.159 29.6662L184.159 31.3433C184.159 31.3433 184.923 33.5749 186.452 33.9878L190.597 32.6468L190.389 32.2987C190.391 32.2996 190.393 32.2996 190.395 32.2996C189.864 31.4917 189.921 29.934 190.108 28.6382C190.294 27.3424 189.622 27.2964 189.125 27.6188C188.838 27.8048 188.635 28.396 188.401 29.0332C188.197 28.7525 187.979 28.4821 187.732 28.2364L186.466 26.9765C185.92 26.4331 185.045 26.4083 184.468 26.9201L183.442 27.8312C182.92 28.2953 182.801 29.0656 183.159 29.6662Z" fill="#007AC5"/>
<path opacity="0.7" d="M183.159 29.6662L184.159 31.3433C184.159 31.3433 184.923 33.5749 186.452 33.9878L190.597 32.6468L190.389 32.2987C190.391 32.2996 190.393 32.2996 190.395 32.2996C189.864 31.4917 189.921 29.934 190.108 28.6382C190.294 27.3424 189.622 27.2964 189.125 27.6188C188.838 27.8048 188.635 28.396 188.401 29.0332C188.197 28.7525 187.979 28.4821 187.732 28.2364L186.466 26.9765C185.92 26.4331 185.045 26.4083 184.468 26.9201L183.442 27.8312C182.92 28.2953 182.801 29.0656 183.159 29.6662Z" fill="white"/>
<path d="M221.911 23.531C217.942 24.4933 212.489 26.7564 208.807 29.0486C207.501 29.8607 206.85 31.4031 207.157 32.9087C208.8 40.9617 212.548 51.7487 216.594 58.6107L235.471 50.8077C235.601 47.4808 231.018 36.7151 226.35 26.3103C225.511 24.4387 223.905 23.0482 221.911 23.531Z" fill="#007AC5"/>
<path opacity="0.8" d="M221.911 23.531C217.942 24.4933 212.489 26.7564 208.807 29.0486C207.501 29.8607 206.85 31.4031 207.157 32.9087C208.8 40.9617 212.548 51.7487 216.594 58.6107L235.471 50.8077C235.601 47.4808 231.018 36.7151 226.35 26.3103C225.511 24.4387 223.905 23.0482 221.911 23.531Z" fill="white"/>
<path opacity="0.3" d="M229.27 32.9061L225.523 31.6512C226.362 33.8411 229.394 36.6169 231.525 38.2471C230.823 36.5359 230.061 34.747 229.27 32.9061Z" fill="#007AC5"/>
<path d="M220.667 15.0822C219.108 12.1127 215.737 10.6181 211.688 10.9559C208.275 11.2409 205.248 14.7231 205.607 16.6049C205.966 18.4868 208.839 19.2835 209.359 19.937L206.991 21.6517C205.813 22.5056 205.582 24.1656 206.482 25.3087C207.479 26.573 208.79 27.8935 209.554 28.8259C216.097 28.6562 220.936 26.1618 222.68 23.7621C222.053 20.709 222.216 18.0355 220.667 15.0822Z" fill="#007AC5"/>
<path opacity="0.8" d="M220.667 15.0822C219.108 12.1127 215.737 10.6181 211.688 10.9559C208.275 11.2409 205.248 14.7231 205.607 16.6049C205.966 18.4868 208.839 19.2835 209.359 19.937L206.991 21.6517C205.813 22.5056 205.582 24.1656 206.482 25.3087C207.479 26.573 208.79 27.8935 209.554 28.8259C216.097 28.6562 220.936 26.1618 222.68 23.7621C222.053 20.709 222.216 18.0355 220.667 15.0822Z" fill="white"/>
<path d="M217.458 16.9214C218.757 20.2449 217.115 23.9916 213.789 25.2899C210.463 26.5883 206.713 24.9478 205.414 21.6243C204.115 18.3016 205.756 14.5541 209.082 13.2557C212.408 11.9574 216.158 13.5987 217.458 16.9214Z" fill="#263238"/>
<path d="M272.891 93.7996C272.796 90.9939 272.675 91.2746 272.593 88.8826C272.544 87.4298 272.538 85.8209 272.528 84.427C272.519 83.0664 271.557 81.9019 270.222 81.6315C269.091 81.402 267.956 81.1837 266.827 80.9431C265.353 80.6292 263.897 80.2914 262.45 79.8716C261.328 79.5458 260.215 79.1866 259.116 78.7908C257.938 78.3668 256.776 77.9019 255.625 77.4089C254.279 76.8322 252.95 76.218 251.631 75.585C250.158 74.8787 248.697 74.1484 247.24 73.4088C241.622 64.1147 241.5 57.9905 235.47 50.8069L222.527 56.6572C222.527 56.6572 232.037 73.518 238.514 80.6667C242.242 84.781 248.091 86.6356 253.308 87.9817C257.071 88.9525 260.887 89.6955 264.708 90.3968C266.193 90.6689 267.808 90.7747 269.086 91.661C270.093 92.3588 270.613 93.4482 270.91 94.6058C270.971 94.8421 271.022 95.0809 271.068 95.3215C271.205 96.0355 272.949 95.4964 272.891 93.7996Z" fill="#007AC5"/>
<path opacity="0.8" d="M272.891 93.7996C272.796 90.9939 272.675 91.2746 272.593 88.8826C272.544 87.4298 272.538 85.8209 272.528 84.427C272.519 83.0664 271.557 81.9019 270.222 81.6315C269.091 81.402 267.956 81.1837 266.827 80.9431C265.353 80.6292 263.897 80.2914 262.45 79.8716C261.328 79.5458 260.215 79.1866 259.116 78.7908C257.938 78.3668 256.776 77.9019 255.625 77.4089C254.279 76.8322 252.95 76.218 251.631 75.585C250.158 74.8787 248.697 74.1484 247.24 73.4088C241.622 64.1147 241.5 57.9905 235.47 50.8069L222.527 56.6572C222.527 56.6572 232.037 73.518 238.514 80.6667C242.242 84.781 248.091 86.6356 253.308 87.9817C257.071 88.9525 260.887 89.6955 264.708 90.3968C266.193 90.6689 267.808 90.7747 269.086 91.661C270.093 92.3588 270.613 93.4482 270.91 94.6058C270.971 94.8421 271.022 95.0809 271.068 95.3215C271.205 96.0355 272.949 95.4964 272.891 93.7996Z" fill="white"/>
<path opacity="0.3" d="M266.326 80.8364C265.816 80.7247 265.299 80.6104 264.784 80.4884C264.824 83.434 263.442 88.5217 262.934 90.0632C263.472 90.1647 264.019 90.2688 264.557 90.3711C266.056 86.3234 266.291 82.0384 266.326 80.8364Z" fill="#007AC5"/>
<path opacity="0.3" d="M272.525 84.4279C272.515 83.0639 271.557 81.902 270.225 81.629C269.957 81.5744 269.68 81.5164 269.41 81.4703C269.467 82.2722 269.965 83.2029 270.8 83.9417C271.347 84.4347 271.966 84.7623 272.535 84.9167C272.526 84.747 272.526 84.5874 272.525 84.4279Z" fill="#007AC5"/>
<path d="M216.251 16.976C216.597 18.2692 215.148 19.629 213.988 18.5107C213.048 17.603 211.63 16.0828 210.473 15.3603C209.285 14.6173 210.87 13.324 212.736 13.8256C214.478 14.2948 215.905 15.6819 216.251 16.976Z" fill="white"/>
<path d="M216.348 58.196C215.746 58.4178 216.846 59.4381 216.846 59.4381C216.846 59.4381 228.773 55.3545 236.051 51.1497C236.112 50.2702 235.472 49.8036 235.472 49.8036C235.472 49.8036 226.617 54.4135 216.348 58.196Z" fill="#007AC5"/>
<path opacity="0.5" d="M216.348 58.196C215.746 58.4178 216.846 59.4381 216.846 59.4381C216.846 59.4381 228.773 55.3545 236.051 51.1497C236.112 50.2702 235.472 49.8036 235.472 49.8036C235.472 49.8036 226.617 54.4135 216.348 58.196Z" fill="white"/>
<path d="M225.141 22.9671C227.496 24.1554 229.712 25.4137 231.926 26.8067C233.028 27.5003 234.125 28.2126 235.206 28.9812C236.295 29.7345 237.37 30.5287 238.449 31.4227L238.853 31.7537L239.358 32.2083C239.716 32.524 239.979 32.8149 240.243 33.1049C240.52 33.4043 240.748 33.6927 240.972 33.9802C241.205 34.2693 241.426 34.5568 241.625 34.84C242.47 35.9729 243.158 37.1254 243.833 38.2685C245.145 40.5863 246.282 42.9007 247.219 45.3907C247.637 46.5014 247.076 47.7401 245.963 48.1589C245.128 48.4729 244.22 48.234 243.643 47.6249L243.601 47.5789C241.886 45.7635 240.241 43.8484 238.585 42.0698C236.966 40.2962 235.245 38.4758 233.858 37.6842C231.92 36.4762 229.762 35.2768 227.617 34.0953L221.16 30.5142L221.144 30.5056C219.082 29.3625 218.338 26.7658 219.482 24.7056C220.6 22.6967 223.107 21.9434 225.141 22.9671Z" fill="#007AC5"/>
<path opacity="0.8" d="M225.141 22.9671C227.496 24.1554 229.712 25.4137 231.926 26.8067C233.028 27.5003 234.125 28.2126 235.206 28.9812C236.295 29.7345 237.37 30.5287 238.449 31.4227L238.853 31.7537L239.358 32.2083C239.716 32.524 239.979 32.8149 240.243 33.1049C240.52 33.4043 240.748 33.6927 240.972 33.9802C241.205 34.2693 241.426 34.5568 241.625 34.84C242.47 35.9729 243.158 37.1254 243.833 38.2685C245.145 40.5863 246.282 42.9007 247.219 45.3907C247.637 46.5014 247.076 47.7401 245.963 48.1589C245.128 48.4729 244.22 48.234 243.643 47.6249L243.601 47.5789C241.886 45.7635 240.241 43.8484 238.585 42.0698C236.966 40.2962 235.245 38.4758 233.858 37.6842C231.92 36.4762 229.762 35.2768 227.617 34.0953L221.16 30.5142L221.144 30.5056C219.082 29.3625 218.338 26.7658 219.482 24.7056C220.6 22.6967 223.107 21.9434 225.141 22.9671Z" fill="white"/>
<path d="M249.278 49.5613L248.553 47.7486C248.553 47.7486 248.149 45.4248 246.703 44.7773L242.4 45.453L242.551 45.8292C242.549 45.8283 242.547 45.8275 242.545 45.8275C242.942 46.7078 242.641 48.2382 242.253 49.488C241.866 50.7386 242.523 50.8896 243.064 50.649C243.377 50.5099 243.671 49.958 244 49.3651C244.158 49.6748 244.331 49.9759 244.536 50.2566L245.589 51.6991C246.043 52.321 246.904 52.4831 247.554 52.0676L248.709 51.328C249.299 50.9518 249.538 50.2105 249.278 49.5613Z" fill="#007AC5"/>
<path opacity="0.8" d="M249.278 49.5613L248.553 47.7486C248.553 47.7486 248.149 45.4248 246.703 44.7773L242.4 45.453L242.551 45.8292C242.549 45.8283 242.547 45.8275 242.545 45.8275C242.942 46.7078 242.641 48.2382 242.253 49.488C241.866 50.7386 242.523 50.8896 243.064 50.649C243.377 50.5099 243.671 49.958 244 49.3651C244.158 49.6748 244.331 49.9759 244.536 50.2566L245.589 51.6991C246.043 52.321 246.904 52.4831 247.554 52.0676L248.709 51.328C249.299 50.9518 249.538 50.2105 249.278 49.5613Z" fill="white"/>
<path opacity="0.3" d="M221.537 32.7722L220.496 32.8567L214.105 48.2835C214.481 48.3091 214.826 48.2775 215.145 48.199C215.145 48.199 223.478 45.0964 226 43.9593C224.303 40.4447 221.537 32.7722 221.537 32.7722Z" fill="#007AC5"/>
<path d="M209.867 36.82C210.223 39.5985 212.308 45.5034 214.106 48.2835C217.227 47.2086 222.439 45.1809 224.961 44.0438C223.263 40.53 221.475 35.688 220.496 32.8575C217.808 33.0358 211.949 35.241 209.867 36.82Z" fill="white"/>
<path opacity="0.3" d="M216.214 40.1564C215.866 41.3208 214.638 41.9819 213.473 41.633C212.309 41.2841 211.646 40.0583 211.996 38.8947C212.345 37.7302 213.572 37.0691 214.736 37.418C215.901 37.7661 216.562 38.9919 216.214 40.1564Z" fill="#007AC5"/>
<path opacity="0.6" d="M217.847 37.2175C217.732 37.5988 217.33 37.8155 216.949 37.7012C216.567 37.5869 216.35 37.1851 216.464 36.8038C216.578 36.4224 216.98 36.2058 217.362 36.3201C217.744 36.4335 217.961 36.8353 217.847 37.2175Z" fill="#007AC5"/>
<path opacity="0.6" d="M219.753 36.4762C219.638 36.8575 219.236 37.0742 218.854 36.9599C218.473 36.8455 218.256 36.4438 218.37 36.0624C218.485 35.6811 218.887 35.4644 219.269 35.5787C219.65 35.6931 219.867 36.0948 219.753 36.4762Z" fill="#007AC5"/>
<path opacity="0.5" d="M222.438 43.1198L214.544 46.2369L214.066 44.6861L221.961 41.5681L222.438 43.1198Z" fill="#007AC5"/>
<path opacity="0.2" d="M178.866 161.681C178.695 168.113 178.217 173.053 177.432 176.482C176.425 180.867 174.862 184.074 172.736 186.105C170.619 188.135 168.109 189.15 165.215 189.15C160.826 189.15 157.471 186.761 155.166 181.976C154.79 181.199 154.449 180.312 154.133 179.323C149.258 183.511 144.716 188.084 140.541 192.997L136.008 198.338C138.458 200.82 141.241 202.859 144.349 204.471C149.668 207.218 156.643 208.6 165.283 208.6C166.803 208.6 168.271 208.557 169.697 208.472C174.922 200.743 179.25 192.434 182.589 183.716L195.267 150.685L178.866 161.681Z" fill="#1C1C1C"/>
<path d="M64.5742 206.713C69.3527 211.488 79.5166 221.643 79.5166 221.643L121.36 182.26C106.961 176.79 78.8925 192.407 64.5742 206.713Z" fill="#054D79"/>
<path d="M116.685 258.779C111.906 254.004 101.742 243.848 101.742 243.848L141.157 202.04C146.632 216.427 131.003 244.472 116.685 258.779Z" fill="#054D79"/>
<path d="M173.865 164.692L190.164 133.291L158.738 149.577C148.642 154.81 139.321 161.415 131.039 169.205L77.4688 219.595L103.79 245.895L154.221 192.368C162.018 184.094 168.628 174.78 173.865 164.692Z" fill="#007AC5"/>
<path opacity="0.6" d="M173.865 164.692L190.164 133.291L158.738 149.577C148.642 154.81 139.321 161.415 131.039 169.205L77.4688 219.595L103.79 245.895L154.221 192.368C162.018 184.094 168.628 174.78 173.865 164.692Z" fill="white"/>
<path d="M140.399 194.023C146.481 194.023 151.412 189.096 151.412 183.019C151.412 176.942 146.481 172.015 140.399 172.015C134.317 172.015 129.387 176.942 129.387 183.019C129.387 189.096 134.317 194.023 140.399 194.023Z" fill="white"/>
<path d="M140.398 190.087C144.304 190.087 147.471 186.922 147.471 183.019C147.471 179.116 144.304 175.951 140.398 175.951C136.491 175.951 133.324 179.116 133.324 183.019C133.324 186.922 136.491 190.087 140.398 190.087Z" fill="#007AC5"/>
<path opacity="0.3" d="M112.69 236.449L86.9219 210.703L108.019 190.857L132.551 215.369L112.69 236.449Z" fill="#007AC5"/>
<path d="M70.4088 230.307C51.1097 231.876 44.7168 244.217 42.5363 260.624C41.4247 268.992 40.9312 277.458 33.8989 282.356C31.9472 283.716 32.9162 286.747 35.2947 286.672C61.1968 285.865 73.2782 273.191 74.7954 267.884C74.2729 271.239 73.5113 273.885 72.6678 275.966C71.8004 278.105 74.1508 280.084 76.1076 278.859C83.379 274.307 92.4988 265.931 93.105 252.348C87.7289 244.798 70.4088 230.307 70.4088 230.307Z" fill="#007AC5"/>
<path opacity="0.2" d="M70.4088 230.307C51.1097 231.876 44.7168 244.217 42.5363 260.624C41.4247 268.992 40.9312 277.458 33.8989 282.356C31.9472 283.716 32.9162 286.747 35.2947 286.672C61.1968 285.865 73.2782 273.191 74.7954 267.884C74.2729 271.239 73.5113 273.885 72.6678 275.966C71.8004 278.105 74.1508 280.084 76.1076 278.859C83.379 274.307 92.4988 265.931 93.105 252.348C87.7289 244.798 70.4088 230.307 70.4088 230.307Z" fill="white"/>
<path d="M96.0704 258.189L65.168 227.311L81.6309 223.753L99.6323 241.739L96.0704 258.189Z" fill="#007AC5"/>
</svg>
