<svg width="321" height="796" viewBox="0 0 321 796" fill="none" xmlns="http://www.w3.org/2000/svg">
<path d="M299.199 432.146C299.199 433.339 299.199 434.505 299.199 435.697C299.199 447.304 299.199 458.885 299.199 470.492C299.199 471.499 299.225 472.479 299.146 473.46C298.881 476.746 297.295 478.495 294.095 479.025C293.461 479.131 292.826 479.157 292.059 479.21C291.769 482.125 291.187 484.908 287.935 485.729C284.709 486.577 282.065 485.57 280.505 482.655C273.127 483.185 272.413 482.496 271.065 473.672C270.589 473.619 270.06 473.566 269.531 473.513C265.406 473.115 263.45 471.234 263.661 467.073C264.243 456.606 262.392 446.456 260.515 436.201C258.346 424.276 256.205 412.271 256.02 400.108C255.835 389.561 252.767 379.676 249.832 369.739C246.263 357.575 242.561 345.438 239.388 333.142C236.03 320.078 234.39 306.722 233.439 293.26C233.042 287.562 231.799 281.918 230.927 276.247C229.869 269.595 228.785 262.944 227.701 256.319C227.621 255.815 227.463 255.338 226.828 254.861C226.617 257.591 226.484 260.32 226.22 263.023C225.4 271.132 224.977 279.347 223.497 287.35C222.518 292.65 223.259 297.659 223.735 302.8C224.528 311.598 225.427 320.369 225.506 329.22C225.585 336.508 226.379 343.769 226.881 351.03C227.41 358.529 227.886 366.002 228.573 373.502C229.499 383.492 230.715 393.483 231.614 403.473C233.386 423.057 234.311 442.693 233.624 462.383C232.989 480.986 230.054 499.271 226.114 517.397C225.585 519.861 224.924 522.352 223.946 524.684C222.809 527.414 222.386 530.17 222.227 533.058C221.434 548.375 220.403 563.719 219.874 579.036C219.557 588.072 219.266 597.241 220.376 606.145C221.619 615.977 221.91 625.729 221.408 635.534C220.667 649.658 219.028 663.703 214.824 677.298C213.158 682.651 210.831 687.818 209.298 693.198C205.331 707.216 201.894 721.394 199.99 735.836C199.118 742.382 198.906 749.033 198.404 755.632C198.06 760.031 197.795 764.456 197.346 768.829C197.187 770.366 197.61 771.558 198.351 772.857C200.307 776.302 202.29 779.773 203.824 783.404C204.644 785.365 204.882 787.67 204.908 789.843C204.961 792.308 203.48 794.004 201.101 794.64C199.62 795.037 198.06 795.249 196.553 795.276C188.832 795.355 181.137 795.329 173.416 795.355C162.946 795.408 152.475 795.514 142.004 795.514C136.055 795.514 130.105 795.382 124.156 795.276C123.283 795.249 122.384 795.196 121.538 795.037C117.413 794.269 115.509 791.566 116.17 787.405C116.99 782.397 119.396 778.024 122.173 773.89C123.415 772.035 123.918 770.233 123.812 768.06C122.649 740.686 118.286 713.868 110.406 687.606C110.248 687.076 110.115 686.546 109.851 686.043C104.536 675.39 102.844 663.809 101.284 652.202C99.9618 642.45 99.1686 632.645 99.433 622.814C99.5652 618.097 100.173 613.38 100.596 608.636C100.861 605.668 101.284 602.7 101.363 599.732C101.707 584.919 101.205 570.132 100.226 555.371C99.6974 547.103 99.2479 538.835 98.7191 530.567C98.6398 529.481 98.5869 528.315 98.1903 527.334C94.8586 519.543 93.4043 511.249 92.1616 502.981C90.4693 491.745 89.1208 480.456 87.7723 469.167C87.4021 465.987 87.455 462.78 87.3757 459.574C86.8997 438.003 87.9045 416.485 90.2842 395.073C92.2674 377.185 93.9067 359.271 94.9115 341.304C95.3346 333.937 95.4403 326.544 95.9956 319.177C96.6038 311.041 97.5557 302.906 98.296 294.797C98.4018 293.604 98.5869 292.332 98.296 291.219C96.4451 283.667 95.8634 275.982 95.3081 268.27C95.0173 263.977 94.7529 259.684 94.0918 255.259C93.8274 255.842 93.4308 256.425 93.325 257.034C91.527 267.82 89.6761 278.579 88.0896 289.391C87.3492 294.399 87.2435 299.514 86.7411 304.549C85.1017 320.528 81.6643 336.11 76.9048 351.454C73.8376 361.365 71.0084 371.329 67.9147 381.24C66.5133 385.718 65.773 390.276 65.5614 394.914C64.8475 412.165 62.2562 429.178 58.766 446.059C57.4439 452.498 57.3646 458.991 57.4439 465.51C57.4439 466.517 57.5496 467.497 57.4439 468.478C57.2323 471.022 55.6459 472.771 53.1604 473.248C52.2085 473.433 51.2301 473.46 49.908 473.592C49.8287 474.626 49.7494 475.686 49.6965 476.746C49.485 480.986 47.3432 482.973 43.1655 482.761C42.3987 482.708 41.6583 482.602 40.7328 482.496C39.067 485.517 36.3964 486.551 33.197 485.65C30.0505 484.775 29.2572 482.099 29.1515 479.051C28.5697 479.025 28.1731 479.025 27.7501 478.972C24.0747 478.601 22.1709 476.64 21.9594 473.009C21.88 471.578 21.9329 470.147 21.9329 468.69C21.9329 457.639 21.9329 446.589 21.9329 435.565C21.9329 434.372 21.9329 433.206 21.9329 431.272C20.9282 432.279 20.3993 432.756 19.9498 433.259C18.2311 435.114 16.6182 437.102 14.7937 438.824C12.2025 441.262 8.97659 442.004 5.59207 441.262C4.16423 440.944 2.70995 440.149 1.57296 439.195C-0.463035 437.446 -0.436593 436.201 1.49364 434.213C6.57041 429.019 10.4573 423.083 12.9957 416.22C14.45 412.298 16.909 409.038 20.2671 406.574C22.8319 404.692 25.4761 402.89 28.1731 401.168C34.0431 397.458 36.9781 392.184 37.1632 385.215C37.7978 360.252 38.406 335.315 39.2521 310.352C39.543 301.978 40.5478 293.631 42.4515 285.416C42.8482 283.693 43.139 281.865 44.0116 280.381C45.4923 277.89 45.2543 275.319 45.0693 272.696C44.7784 268.747 44.1702 264.746 44.3289 260.824C44.5933 254.119 45.1486 247.388 45.8889 240.71C46.6293 234.138 47.4754 227.54 48.7711 221.074C49.8287 215.906 51.5739 210.871 53.1868 205.836C53.8214 203.822 54.2445 201.861 54.1651 199.715C53.8478 189.83 54.9319 180.131 57.7612 170.591C61.0135 159.62 67.9412 151.723 77.3808 145.708C83.3566 141.918 89.6761 138.844 96.2865 136.327C97.397 135.903 98.5604 135.373 99.3537 134.551C107.736 125.992 117.281 118.89 127.091 112.132C129.444 110.516 131.269 108.687 132.538 106.117C133.886 103.361 135.499 100.711 136.927 98.1405C136.768 97.743 136.768 97.4514 136.61 97.3719C131.348 93.7944 128.413 88.5475 126.298 82.7439C123.918 76.172 122.728 69.3084 122.014 62.3919C120.956 52.2425 120.692 42.1195 123.045 32.076C125.425 21.847 130.132 13.0755 138.99 7.00695C157.366 -5.55405 185.421 0.116952 195.072 23.278C197.505 29.161 198.932 35.2824 199.355 41.563C200.228 54.5479 199.355 67.4269 195.469 79.9084C194.226 83.8569 192.348 87.6995 190.207 91.2505C188.7 93.715 186.267 95.6229 184.019 98.0344C186.029 101.612 188.065 105.507 190.365 109.244C191.079 110.383 192.507 111.072 193.644 111.947C201.471 118.042 209.483 123.898 217.018 130.338C220.747 133.518 224.369 136.353 228.996 138.155C233.677 139.984 238.092 142.581 242.482 145.098C255.121 152.386 262.445 163.383 265.063 177.693C266.411 185.113 267.046 192.56 266.887 200.086C266.861 201.702 267.046 203.425 267.627 204.909C271.885 215.827 273.656 227.248 274.872 238.802C275.639 245.931 276.459 253.059 276.75 260.214C276.935 264.587 276.247 269.012 275.798 273.411C275.586 275.531 275.904 277.413 276.565 279.48C278.098 284.17 279.473 289.02 280.002 293.896C281.06 303.33 281.8 312.79 282.117 322.277C282.805 342.576 283.122 362.902 283.651 383.227C283.704 385.427 283.863 387.679 284.391 389.799C285.528 394.49 288.225 398.173 292.324 400.797C294.915 402.466 297.506 404.162 300.018 405.938C303.826 408.614 306.523 412.165 308.162 416.538C310.674 423.269 314.482 429.125 319.532 434.213C321.462 436.174 321.41 437.287 319.479 439.195C316.967 441.713 311.785 442.402 308.4 440.229C306.126 438.771 304.249 436.678 302.266 434.77C301.34 433.869 300.626 432.756 299.807 431.749C299.727 431.961 299.463 432.04 299.199 432.146ZM160.328 155.062C171.486 141.892 180.608 128.35 186.902 112.954C187.483 111.496 187.139 110.436 186.452 109.244C184.363 105.613 182.301 101.983 180.318 98.273C179.313 96.3915 179.524 95.6229 181.375 94.9074C184.76 93.556 187.087 91.012 188.594 87.938C190.471 84.0955 192.163 80.094 193.274 75.9865C195.839 66.5525 196.579 56.8534 196.42 47.1279C196.315 40.0524 195.336 33.0565 192.772 26.3785C189.334 17.4215 183.491 10.7435 174.58 6.87445C157.842 -0.386547 136.24 6.10595 128.783 25.822C127.355 29.6115 126.298 33.6129 125.716 37.6144C123.918 49.7514 125.028 61.8354 127.435 73.7869C128.413 78.6894 129.92 83.4064 132.432 87.726C134.124 90.6144 136.107 93.238 139.28 94.669C141.951 95.888 142.083 96.2059 140.655 98.8294C138.752 102.327 136.848 105.799 134.812 109.191C133.86 110.781 133.86 112.132 134.547 113.802C138.302 122.812 143.009 131.265 148.588 139.242C152.263 144.515 156.203 149.55 160.328 155.062ZM97.0533 371.938C96.736 372.124 96.4187 372.336 96.1014 372.521C96.0749 375.807 95.9163 379.067 96.0749 382.353C96.9739 399.445 98.8513 416.432 101.337 433.339C105.858 463.999 111.993 494.368 119.211 524.499C119.476 525.612 119.872 526.725 120.269 527.97C130.105 519.649 153.136 473.248 155.542 463.151C150.412 460.634 149.09 459.15 147.133 453.638C146.843 452.816 146.578 451.968 146.287 451.12C141.581 437.446 136.266 424.037 129.788 411.105C124.949 401.406 119.608 392.025 112.574 383.731C109.719 380.365 106.625 377.185 102.818 374.88C100.993 373.793 98.9835 372.919 97.0533 371.938ZM200.255 527.944C200.598 527.838 200.916 527.758 201.259 527.652C205.014 510.189 208.874 492.778 212.444 475.262C216.516 455.36 219.848 435.353 222.095 415.16C223.497 402.546 224.184 389.879 225.136 377.238C225.268 375.648 225.03 374.005 224.951 372.23C221.276 372.601 218.684 374.482 216.146 376.39C211.175 380.153 207.262 384.923 203.665 389.985C197.346 398.809 192.454 408.429 187.88 418.26C182.539 429.761 177.885 441.58 173.945 453.638C172.517 458.01 170.164 461.296 165.801 462.939C165.643 462.992 165.537 463.284 165.299 463.628C165.59 464.423 165.854 465.377 166.277 466.225C171.962 478.177 177.515 490.181 183.438 502C187.536 510.189 192.348 518.006 198.007 525.241C198.721 526.195 199.514 527.069 200.255 527.944ZM160.169 770.074C160.486 770.074 160.777 770.101 161.095 770.101C161.333 769.2 161.623 768.325 161.756 767.398C162.496 762.495 163.104 757.566 163.924 752.664C166.198 739.069 169.371 725.607 170.481 711.827C171.169 703.347 171.936 694.894 170.852 686.361C170.032 680.027 169.265 673.667 168.63 667.281C167.308 653.739 166.806 640.171 167.599 626.577C167.89 621.727 168.71 616.957 170.772 612.452C173.866 605.721 174.104 598.513 173.178 591.332C172.094 582.905 170.455 574.557 169.291 566.157C166.965 549.409 165.669 532.555 166.251 515.621C166.33 513.422 166.145 511.196 165.881 509.023C164.664 499.165 163.395 489.307 162.126 479.449C161.676 476.004 161.253 472.559 160.83 469.14C159.455 476.428 158.503 483.636 157.684 490.844C156.467 501.444 153.982 511.964 155.172 522.776C155.357 524.525 155.172 526.301 155.119 528.076C154.537 548.64 151.999 568.992 148.376 589.238C147.054 596.605 146.922 604.131 149.989 611.074C152.766 617.328 153.665 623.768 153.903 630.393C154.458 645.657 153.427 660.868 151.681 676.026C150.65 684.903 149.566 693.781 150.069 702.764C150.65 713.364 151.629 723.938 153.85 734.299C156.176 745.217 157.975 756.188 159.429 767.239C159.535 768.219 159.905 769.147 160.169 770.074ZM240.366 196.323C235.29 192.719 231.35 188.346 228.547 183.205C225.771 178.091 223.259 172.791 221.117 167.385C216.463 155.592 207.737 149.338 195.072 149.285C188.462 149.259 181.851 149.55 175.267 149.179C171.195 148.941 168.445 150.107 166.145 153.472C164.823 155.38 164.056 157.129 164.083 159.461C164.188 170.379 164.109 181.297 164.162 192.242C164.162 194.547 164.347 196.879 164.691 199.158C166.78 212.117 178.387 222.028 191.449 222.293C197.187 222.399 202.581 220.994 207.764 218.742C219.504 213.654 229.657 206.154 239.229 197.727C239.52 197.383 239.758 197.012 240.366 196.323ZM81.1619 196.614C81.3999 196.959 81.5321 197.277 81.7701 197.489C83.0128 198.602 84.2291 199.688 85.4983 200.748C94.3562 208.089 103.69 214.714 114.399 219.113C119.211 221.1 124.209 222.293 129.497 222.213C143.802 221.975 156.309 210.341 156.811 195.925C157.261 183.126 157.076 170.3 156.864 157.5C156.811 153.843 153.453 151.829 151.153 149.391C150.862 149.1 150.095 149.232 149.54 149.232C141.052 149.232 132.564 149.047 124.076 149.312C115.43 149.577 108.344 153.287 103.426 160.548C102.024 162.615 100.967 165 100.094 167.358C96.0485 178.382 90.7602 188.558 81.347 196.058C81.2941 196.111 81.2941 196.27 81.1619 196.614ZM149.778 558.551C148.561 559.214 148.138 559.373 147.821 559.638C143.934 562.897 139.889 565.971 136.187 569.443C124.817 580.175 119.608 593.425 120.93 609.034C121.432 615.076 122.278 621.091 123.389 627.054C125.293 637.23 127.54 647.353 129.576 657.529C133.331 676.291 134.865 695.318 136.028 714.371C137.033 730.457 137.456 746.569 138.143 762.654C138.196 763.608 138.355 764.536 138.434 765.331C144.331 765.808 149.857 766.258 155.568 766.735C155.568 766.046 155.648 765.49 155.568 764.986C154.378 757.354 153.612 749.643 151.919 742.117C148.614 727.515 146.737 712.755 146.552 697.862C146.446 689.859 147.636 681.803 148.482 673.826C150.095 658.43 150.968 643.033 150.254 627.557C150.042 622.681 149.434 617.885 147.081 613.486C146.367 612.134 145.97 610.597 145.6 609.113C143.749 601.826 143.987 594.485 145.23 587.118C146.843 577.843 148.218 568.568 149.778 558.551ZM172.094 558.896C172.094 560.168 171.989 560.936 172.121 561.678C173.496 570.847 174.897 579.99 176.351 589.159C177.621 597.162 177.594 605.138 174.395 612.611C172.015 618.15 171.037 623.794 170.825 629.651C170.217 645.471 171.142 661.212 173.073 676.9C174.104 685.248 175.135 693.542 174.659 701.969C174.077 712.569 172.782 723.063 171.01 733.531C169.265 743.76 167.493 753.962 165.748 764.191C165.616 765.013 165.722 765.861 165.722 766.629C171.46 766.152 177.012 765.702 182.592 765.225C182.671 764.536 182.777 764.006 182.803 763.476C183.517 739.97 184.363 716.465 186.769 693.065C187.906 681.988 189.149 670.885 191.238 659.967C194.094 644.915 197.663 629.995 199.673 614.758C200.678 607.126 200.704 599.626 198.774 592.1C194.913 577.154 184.257 567.826 172.094 558.896ZM216.622 570.741C216.41 570.635 216.172 570.556 215.961 570.45C215.247 571.51 214.48 572.543 213.793 573.63C208.055 582.56 205.384 592.445 204.379 602.939C203.057 616.772 200.889 630.499 198.033 644.12C196.341 652.202 194.279 660.258 193.168 668.42C191.423 681.299 189.942 694.258 189.07 707.243C187.827 725.74 187.219 744.263 186.346 762.787C186.293 763.741 186.452 764.695 186.505 765.781C189.096 766.179 191.449 766.55 193.909 766.947C194.12 765.702 194.358 764.748 194.437 763.767C194.755 759.925 194.993 756.056 195.31 752.213C195.865 745.721 196.209 739.228 197.055 732.789C198.668 720.625 201.656 708.753 204.75 696.908C205.913 692.429 207.314 688.03 208.742 683.631C209.906 680.08 211.492 676.635 212.497 673.058C215.538 662.06 216.886 650.771 217.732 639.429C218.42 630.181 219.16 620.879 217.653 611.684C216.384 603.999 216.357 596.314 216.384 588.576C216.41 583.064 216.595 577.552 216.701 572.013C216.701 571.589 216.648 571.165 216.622 570.741ZM134.706 765.755C134.706 764.509 134.732 763.529 134.706 762.548C134.177 737.373 132.934 712.251 130.449 687.209C129.312 675.787 127.884 664.392 125.161 653.236C120.956 636.064 118.312 618.627 116.541 601.057C115.562 591.252 112.733 582.057 107.392 573.709C106.704 572.649 105.938 571.669 104.748 570.026C104.748 573.63 104.748 576.333 104.748 579.062C104.695 587.33 104.801 595.625 104.536 603.866C104.378 608.822 103.32 613.724 103.108 618.68C102.553 632.725 103.69 646.69 105.964 660.55C107.127 667.625 108.423 674.727 111.437 681.299C113.183 685.142 114.452 689.09 115.509 693.145C119.238 707.322 122.834 721.553 124.605 736.154C125.425 743.044 125.795 750.014 126.377 756.93C126.641 760.216 126.959 763.476 127.276 767.027C129.867 766.55 132.194 766.152 134.706 765.755ZM4.05846 437.049C7.25789 438.93 10.0607 438.559 12.3082 436.492C14.7673 434.187 16.8826 431.457 18.9715 428.781C20.1878 427.217 20.9546 425.336 22.0916 423.719C22.5146 423.11 23.5987 422.447 24.1276 422.606C24.7093 422.765 25.2381 423.852 25.3968 424.594C25.6083 425.654 25.5025 426.793 25.5025 427.906C25.5025 442.587 25.5025 457.268 25.529 471.976C25.529 474.493 26.2429 475.606 27.6179 475.421C29.6274 475.129 29.3894 473.486 29.3894 472.055C29.4159 466.543 29.3894 461.005 29.3894 455.493C29.3894 454.724 29.2308 453.85 29.5216 453.214C29.7861 452.604 30.5793 451.889 31.1346 451.889C31.6898 451.889 32.4831 452.631 32.7211 453.24C33.0119 454.009 32.9062 454.963 32.9062 455.864C32.9062 463.257 32.9062 470.651 32.9062 478.071C32.9062 478.945 32.9062 479.846 32.9855 480.721C33.0912 481.887 33.8052 482.496 34.9157 482.602C36.1585 482.735 37.1632 482.258 37.4541 481.012C37.6921 480.058 37.6656 479.051 37.6921 478.044C37.7185 470.757 37.7185 463.469 37.7185 456.182C37.7185 455.307 37.5334 454.353 37.8243 453.558C38.0887 452.869 38.8555 452.366 39.4108 451.783C39.9396 452.392 40.7064 452.922 40.9444 453.638C41.2088 454.433 41.0501 455.387 41.0501 456.261C41.0501 462.992 41.0237 469.723 41.0766 476.481C41.103 478.76 41.7905 479.396 43.7207 479.396C45.651 479.422 46.3384 478.76 46.4178 476.507C46.4971 474.308 46.4442 472.082 46.4442 469.882C46.4442 464.582 46.4707 459.282 46.4442 453.982C46.4442 452.843 46.8937 451.915 48.0307 451.836C49.2206 451.756 49.723 452.684 49.7494 453.823C49.7758 454.804 49.7758 455.811 49.7758 456.791C49.7758 460.316 49.723 463.867 49.8287 467.391C49.8816 469.22 50.7542 470.068 52.1291 470.041C53.4777 470.015 54.218 469.14 54.1387 467.206C53.6627 457.215 55.0641 447.437 56.9679 437.632C58.9246 427.588 60.088 417.359 61.5423 407.21C61.7538 405.726 61.5688 404.215 61.5688 402.493C53.0281 401.671 44.8313 400.876 36.608 400.161C35.9205 400.108 35.0744 400.373 34.4926 400.77C30.8702 403.261 27.3006 405.858 23.731 408.402C20.0556 411.026 17.3321 414.365 15.7985 418.711C14.1856 423.216 11.8587 427.323 8.89726 431.086C7.44298 432.994 5.88293 434.823 4.05846 437.049ZM259.695 402.546C259.695 403.977 259.563 405.063 259.721 406.123C260.964 415.531 261.916 424.991 263.661 434.319C265.697 445.078 267.813 455.784 267.152 466.808C267.125 467.365 267.019 468.054 267.284 468.425C267.76 469.061 268.474 469.882 269.108 469.909C269.796 469.935 270.774 469.299 271.144 468.663C271.541 467.974 271.461 466.967 271.488 466.093C271.514 462.568 271.488 459.017 271.514 455.493C271.514 454.724 271.382 453.85 271.699 453.214C271.964 452.604 272.731 451.862 273.286 451.862C273.841 451.862 274.608 452.604 274.872 453.214C275.163 453.876 275.031 454.724 275.031 455.493C275.031 459.918 275.031 464.317 275.031 468.743C275.031 471.393 274.925 474.043 275.005 476.693C275.058 478.813 275.639 479.343 277.517 479.369C279.368 479.396 280.055 478.839 280.293 476.878C280.425 475.898 280.399 474.891 280.399 473.91C280.399 467.736 280.372 461.535 280.425 455.36C280.425 454.009 279.923 452.286 281.932 451.836C283.122 451.571 283.757 452.816 283.757 455.413C283.757 462.913 283.73 470.439 283.73 477.938C283.73 478.813 283.677 479.714 283.783 480.588C283.915 481.887 284.735 482.549 286.004 482.576C287.247 482.602 288.173 482.046 288.41 480.774C288.569 479.926 288.516 479.025 288.516 478.124C288.543 470.73 288.569 463.31 288.596 455.917C288.596 455.148 288.41 454.3 288.675 453.611C288.966 452.896 289.68 452.366 290.235 451.73C290.79 452.313 291.583 452.79 291.848 453.479C292.139 454.247 291.98 455.228 292.007 456.102C292.007 461.084 292.007 466.04 292.007 471.022C292.007 471.896 292.007 472.797 292.086 473.672C292.165 474.652 292.668 475.341 293.725 475.394C294.915 475.447 295.603 474.785 295.761 473.672C295.893 472.691 295.867 471.684 295.867 470.704C295.867 456.235 295.867 441.766 295.867 427.297C295.867 426.528 295.867 425.76 295.867 424.965C295.867 423.931 295.92 422.871 297.083 422.527C298.458 422.103 299.014 423.216 299.569 424.17C299.833 424.647 300.045 425.177 300.362 425.627C302.16 428.277 303.852 431.007 305.809 433.498C306.946 434.929 308.427 436.227 309.987 437.181C312.234 438.559 314.641 438.851 317.152 436.943C316.412 436.068 315.91 435.379 315.328 434.743C311.309 430.265 307.951 425.336 305.915 419.665C303.985 414.312 300.679 410.31 296.026 407.236C292.906 405.169 289.944 402.864 286.85 400.797C286.11 400.32 285.026 400.134 284.101 400.187C280.901 400.373 277.728 400.691 274.555 401.009C269.716 401.486 264.904 401.989 259.695 402.546ZM96.5509 368.334C105.382 370.958 111.437 376.841 116.832 383.519C122.384 390.409 126.906 397.988 130.978 405.858C138.328 420.089 144.304 434.902 149.513 450.06C150.121 451.836 150.677 453.638 151.496 455.307C152.528 457.454 154.061 459.123 156.758 459.415C156.89 458.938 157.076 458.514 157.102 458.116C157.604 444.548 158.292 430.98 156.176 417.465C155.991 416.379 155.595 415.107 156.838 414.524C158.186 413.914 158.16 412.934 158.16 411.821C158.16 405.302 158.107 398.783 158.186 392.29C158.212 390.409 157.472 389.402 155.727 388.978C155.198 388.845 154.696 388.633 154.167 388.421C132.3 380.339 113.447 368.096 99.6974 348.777C99.3801 348.327 98.8249 348.035 98.0845 347.426C97.5557 354.607 97.0797 361.312 96.5509 368.334ZM164.056 459.6C165.14 459.282 165.669 459.229 166.119 458.991C168.578 457.772 169.662 455.572 170.508 453.081C176.774 434.319 184.099 416.008 193.961 398.809C198.43 391.045 203.401 383.625 209.853 377.318C213.845 373.422 218.261 370.216 223.708 368.626C223.999 368.546 224.237 368.281 224.422 368.122C224.686 361.656 223.629 349.943 222.571 347.638C222.465 347.664 222.333 347.664 222.28 347.744C221.937 348.168 221.566 348.592 221.249 349.042C214.348 358.794 205.834 366.877 196.024 373.608C186.796 379.941 176.933 384.976 166.356 388.66C163.078 389.799 163.051 389.826 163.051 393.35C163.025 399.313 163.025 405.275 163.051 411.238C163.051 412.51 162.787 413.808 164.4 414.63C164.955 414.921 165.352 416.379 165.167 417.174C163.58 424.594 163.845 432.12 163.739 439.619C163.686 446.085 163.924 452.604 164.056 459.6ZM202.925 285.416C202.925 288.039 203.004 290.583 202.899 293.101C202.793 295.645 202.528 298.162 202.29 300.706C202.053 303.118 201.762 305.529 201.444 307.941C201.101 310.458 200.73 312.976 200.307 315.467C199.884 317.958 199.435 320.475 198.932 322.966C198.43 325.457 197.822 327.922 197.24 330.386C196.685 332.745 196.103 335.103 195.469 337.435C194.781 339.873 194.041 342.311 193.247 344.723C192.481 347.134 191.687 349.546 190.815 351.931C189.942 354.316 189.017 356.674 188.039 359.033C187.113 361.285 186.161 363.511 185.13 365.711C184.072 368.016 182.856 370.242 181.798 372.548C180.82 374.747 178.996 376.602 178.625 379.756C182.486 377.583 185.87 375.807 189.149 373.793C198.827 367.91 207.42 360.702 214.639 351.904C218.367 347.346 220.879 342.232 221.566 336.402C222.016 332.48 222.227 328.452 221.989 324.503C221.487 316.129 220.614 307.782 219.848 299.434C219.477 295.274 218.711 291.166 220.244 287.032C220.852 285.416 220.879 283.561 221.064 281.812C221.143 281.123 220.985 280.407 220.958 279.798C215.035 281.679 209.298 283.455 202.925 285.416ZM99.7503 279.718C100.279 282.819 100.517 285.681 101.257 288.41C102.051 291.272 101.945 294.055 101.628 296.917C100.358 308.312 98.8513 319.654 99.1686 331.208C99.3801 339.37 101.76 346.525 107.048 352.779C116.594 364.094 128.281 372.548 141.369 379.199C141.713 379.385 142.136 379.411 143.141 379.676C126.271 350.076 119.185 318.435 117.81 285.363C111.913 283.481 106.176 281.706 99.7503 279.718ZM214.85 565.494C216.675 564.249 217.124 562.579 217.204 560.592C217.574 552.43 218.076 544.268 218.605 536.132C218.922 531.203 219.028 526.221 221.434 521.663C221.989 520.603 222.201 519.358 222.412 518.165C223.867 510.798 225.559 503.484 226.617 496.091C228.071 486.047 229.578 475.977 230.081 465.854C231.138 444.654 230.028 423.481 228.203 402.334C228.15 401.751 227.939 401.168 227.807 400.585C227.172 401.141 226.987 401.724 226.908 402.307C225.48 413.808 224.343 425.336 222.624 436.784C218.631 463.416 213.607 489.863 207.129 515.992C204.432 526.91 202.714 537.775 203.348 549.011C203.507 551.767 203.348 554.523 203.401 557.279C203.401 558.127 203.586 558.975 203.639 559.664C205.701 560.486 207.632 561.042 209.35 561.97C211.228 562.924 212.894 564.222 214.85 565.494ZM93.9067 400.638C93.7216 400.638 93.563 400.638 93.3779 400.638C93.1399 403.023 92.7697 405.408 92.6375 407.819C92.0294 417.969 91.2097 428.092 91.0246 438.241C90.8131 449.371 90.6809 460.581 91.5534 471.658C92.426 483.079 94.3298 494.421 96.1543 505.763C97.2912 512.812 98.4811 519.941 101.681 526.46C101.998 527.122 102.024 527.97 102.077 528.739C102.5 534.807 102.897 540.849 103.267 546.918C103.558 551.555 103.769 556.166 104.007 560.804C104.113 562.738 104.483 564.487 105.991 565.256C109.957 563.189 113.632 561.281 117.678 559.187C117.704 559.081 117.836 558.445 117.836 557.783C117.863 549.833 117.863 541.883 117.836 533.933C117.836 532.952 117.598 531.972 117.387 531.018C113.473 513.369 109.349 495.746 105.726 478.044C101.31 456.42 97.7408 434.637 95.361 412.695C94.8586 408.667 94.3562 404.666 93.9067 400.638ZM243.804 196.588C243.486 198.814 243.222 200.642 242.984 202.471C241.847 211.666 240.789 220.862 241.847 230.19C243.671 246.116 249.938 260.108 259.457 272.775C260.7 274.418 262.26 275.796 263.635 277.28C269.426 274.816 272.863 270.814 273.286 264.905C273.603 260.082 273.418 255.179 272.995 250.356C272.466 244.208 271.409 238.113 270.721 231.965C269.743 223.035 267.68 214.369 264.375 205.995C263.952 204.935 263.212 203.849 262.286 203.186C258.426 200.377 254.195 198.231 249.515 197.224C247.743 196.853 245.893 196.826 243.804 196.588ZM57.6025 277.307C59.3212 275.346 61.0135 273.623 62.4678 271.715C67.7296 264.719 71.8545 257.061 74.8688 248.846C79.8927 235.172 80.7389 221.127 78.65 206.79C78.174 203.557 77.8303 200.271 77.4337 196.985C76.7462 196.853 76.3496 196.694 75.9265 196.72C69.2632 196.906 63.6312 199.794 58.3693 203.531C57.7083 203.981 57.2852 204.935 57.0208 205.73C55.5665 210.129 53.7685 214.449 52.9224 218.98C51.3095 227.407 50.0667 235.94 49.0355 244.447C48.2951 250.674 47.8456 256.955 47.8192 263.235C47.7663 269.728 51.045 274.471 57.6025 277.307ZM198.456 305.026C194.517 306.245 191.291 307.331 188.039 308.206C182.459 309.716 176.695 309.557 170.984 309.928C166.674 310.22 164.347 312.605 164.162 316.871C164.135 317.322 164.162 317.746 164.162 318.196C164.162 339.396 164.162 360.623 164.162 381.823C164.162 382.883 164.268 383.969 164.32 385.48C168.049 384.261 171.645 383.784 173.575 380.074C174.791 377.715 176.298 375.542 177.568 373.21C186.637 356.595 192.348 338.787 195.945 320.263C196.923 315.334 197.584 310.299 198.456 305.026ZM156.943 385.453C156.943 383.81 156.943 382.618 156.943 381.425C156.943 360.57 156.943 339.688 156.943 318.832C156.943 318.064 156.97 317.295 156.917 316.527C156.679 312.631 154.326 310.246 150.439 309.955C147.795 309.769 145.15 309.716 142.533 309.557C136.663 309.213 130.951 308.206 125.531 305.874C124.79 305.556 124.024 305.37 122.992 305.052C123.072 306.404 123.019 307.384 123.204 308.338C124.473 315.281 125.504 322.277 127.091 329.141C131.189 346.763 137.562 363.485 146.816 379.093C149.117 382.962 152.422 384.287 156.943 385.453ZM156.335 473.539C156.124 473.486 155.886 473.433 155.674 473.38C155.357 474.043 155.013 474.679 154.696 475.341C150.439 484.06 146.393 492.858 141.898 501.47C136.345 512.15 130.317 522.538 122.226 531.548C121.247 532.661 121.115 533.853 121.115 535.205C121.141 542.598 121.115 549.992 121.141 557.385C121.141 558.127 121.3 558.869 121.379 559.479C123.839 560.406 126.165 561.042 128.307 562.129C130.422 563.215 132.326 564.726 134.521 566.183C139.439 562.102 144.384 558.074 149.196 553.914C149.831 553.357 150.174 552.218 150.254 551.317C151.496 539.445 151.972 527.573 151.602 515.621C151.549 513.634 151.523 511.646 151.761 509.685C152.924 500.622 154.193 491.559 155.383 482.47C155.78 479.528 156.018 476.534 156.335 473.539ZM199.937 559.77C199.937 550.919 199.964 542.413 199.884 533.933C199.884 533.164 199.303 532.316 198.8 531.654C195.707 527.493 192.322 523.545 189.493 519.225C180.608 505.737 173.681 491.188 166.965 476.534C166.489 475.5 165.96 474.467 165.457 473.433C165.246 473.513 165.034 473.592 164.823 473.672C165.986 482.841 167.229 492.036 168.313 501.205C168.921 506.346 169.794 511.514 169.635 516.655C169.291 527.944 170.032 539.18 170.852 550.416C171.01 552.695 171.989 554.258 173.76 555.636C177.409 558.472 180.926 561.519 184.495 564.461C185.236 565.07 186.055 565.627 186.928 566.263C190.683 562.977 194.728 560.618 199.937 559.77ZM84.1762 297.579C68.0998 314.619 48.1365 376.496 51.2037 397.961C54.5618 398.306 57.9992 398.65 61.7538 399.021C61.9389 397.352 62.2034 395.974 62.2562 394.569C62.4678 389.799 63.2346 385.162 64.636 380.604C66.2489 375.33 67.7296 370.03 69.369 364.783C74.7895 347.32 80.1836 329.83 82.5104 311.598C83.0921 306.934 83.621 302.243 84.1762 297.579ZM238.225 297.659C237.934 297.738 237.643 297.818 237.352 297.871C237.431 299.169 237.431 300.494 237.563 301.793C238.886 313.771 240.657 325.669 243.909 337.25C247.4 349.784 251.207 362.213 254.909 374.694C256.786 381.054 258.743 387.361 259.087 394.039C259.166 395.629 259.325 397.246 259.483 399.048C263.37 398.624 266.808 398.226 270.457 397.829C268.262 361.338 257.289 328.187 238.225 297.659ZM52.3936 358.927C52.9224 358.185 53.081 358.026 53.1604 357.84C53.4248 356.992 53.6627 356.144 53.9007 355.296C59.0833 336.269 66.5398 318.17 76.6669 301.236C77.1164 300.468 77.5923 299.726 77.9096 298.904C79.787 294.399 77.8567 289.179 73.4674 287.138C70.7175 285.866 67.809 285.416 64.7682 285.866C56.2011 287.191 50.2253 294.77 50.7806 302.826C51.1244 307.782 51.3623 312.737 51.4945 317.693C51.7854 330.492 51.9969 343.292 52.2349 356.065C52.2613 356.886 52.3142 357.628 52.3936 358.927ZM268.024 358.37C268.183 358.317 268.368 358.291 268.526 358.238C268.606 358.026 268.712 357.84 268.738 357.628C269.293 339.317 269.954 321.005 270.377 302.694C270.642 290.954 259.298 282.766 248.695 286.767C244.28 288.437 241.873 292.332 242.693 296.943C242.958 298.401 243.698 299.858 244.465 301.157C253.561 316.5 260.594 332.745 265.644 349.864C266.49 352.699 267.231 355.535 268.024 358.37ZM164.268 276.883C164.268 283.667 163.897 290.186 164.373 296.625C164.796 302.455 169.582 306.271 175.479 306.245C177.991 306.245 180.582 306.086 183.041 305.556C186.902 304.734 190.736 303.727 194.464 302.455C197.267 301.501 198.985 299.249 199.197 296.228C199.541 291.723 199.62 287.191 199.937 282.686C200.069 280.778 199.223 279.718 197.584 279.241C194.755 278.42 191.899 277.519 188.99 277.015C181.772 275.743 174.5 276.22 167.229 276.406C166.304 276.432 165.352 276.697 164.268 276.883ZM156.943 277.015C155.939 276.777 155.225 276.459 154.511 276.459C148.35 276.432 142.163 276.167 136.028 276.565C132.009 276.83 128.016 277.943 124.129 279.056C121.221 279.877 121.115 280.354 121.221 283.375C121.353 287.244 121.617 291.087 121.776 294.956C121.935 298.931 123.865 301.581 127.567 302.985C133.516 305.264 139.703 306.218 145.997 306.245C152.21 306.271 156.732 301.554 156.943 295.3C157.023 292.995 156.97 290.663 156.97 288.357C156.943 284.594 156.943 280.858 156.943 277.015ZM263.45 199.344C261.705 193.381 259.034 188.691 256.205 184.106C249.304 172.923 241.107 162.694 232.83 152.518C231.693 151.114 230.424 150.504 228.626 150.425C226.458 150.319 224.29 149.762 222.122 149.444C221.408 149.338 220.694 149.312 219.477 149.206C220.72 153.843 221.699 158.11 223.021 162.297C225.797 171.042 229.367 179.442 235.184 186.703C238.066 190.307 241.635 192.613 246.289 193.143C251.498 193.726 256.337 195.475 260.832 198.151C261.467 198.522 262.154 198.761 263.45 199.344ZM101.548 149.153C98.0845 149.656 95.2024 150.239 92.2938 150.451C90.6015 150.584 89.4381 151.167 88.3805 152.465C80.5273 161.979 72.78 171.598 66.2225 182.066C63.3668 186.624 61.0928 191.526 58.6337 196.323C58.2371 197.091 58.2107 198.045 57.9463 199.211C61.0135 197.754 63.5254 196.323 66.1696 195.369C68.8402 194.415 71.643 193.646 74.4458 193.275C79.5754 192.586 83.4359 190.122 86.5031 186.014C94.5678 175.149 98.534 162.641 101.548 149.153ZM162.364 791.672C163.659 791.831 164.426 792.016 165.167 792.016C174.738 792.069 184.31 792.096 193.882 792.096C195.416 792.096 196.949 791.937 198.483 791.698C201.55 791.248 202.29 790.241 201.444 787.193C200.81 784.888 199.911 782.582 198.827 780.462C197.425 777.733 195.389 775.295 194.199 772.486C193.512 770.843 192.666 770.366 191.159 770.074C183.041 768.431 174.976 768.908 166.885 770.313C165.167 770.604 164.268 771.452 163.659 773.122C161.438 779.111 162.681 785.259 162.364 791.672ZM158.926 791.645C158.926 787.538 159.059 784.013 158.874 780.515C158.768 778.236 158.16 775.984 157.816 773.731C157.472 771.558 156.176 770.604 154.088 770.26C147.001 769.12 139.889 768.59 132.749 769.597C130.026 769.995 127.355 770.26 126.43 773.678C126.086 775.003 124.843 776.037 124.182 777.309C122.834 779.932 121.538 782.609 120.322 785.338C119.925 786.213 119.74 787.246 119.661 788.2C119.476 790.506 120.005 791.248 122.226 791.592C123.944 791.884 125.716 792.069 127.461 792.069C136.927 792.096 146.393 792.043 155.833 791.99C156.785 792.016 157.737 791.804 158.926 791.645ZM199.699 276.167C199.779 275.24 199.964 274.604 199.911 273.968C199.541 269.251 199.012 264.507 198.774 259.79C198.642 257.326 197.425 256.133 195.336 255.126C186.214 250.727 176.51 249.164 166.542 248.634C165.828 248.607 165.114 248.872 164.162 249.058C164.188 257.114 164.109 265.011 164.215 273.279C176.457 272.192 188.171 272.272 199.699 276.167ZM156.732 248.581C146.525 248.899 136.98 250.224 127.963 254.199C122.067 256.796 122.834 256.08 122.146 261.725C122.093 262.175 121.961 262.599 121.908 263.023C121.591 267.29 121.327 271.556 121.009 275.982C121.882 275.929 122.331 275.982 122.728 275.849C132.406 272.59 142.374 272.272 152.448 272.961C153.823 273.067 155.225 272.961 156.732 272.961C156.732 264.799 156.732 256.902 156.732 248.581ZM283.413 396.583C281.43 392.37 280.584 388.448 280.505 384.314C280.081 364.571 279.605 344.802 279.077 325.06C278.786 314.142 278.363 303.224 276.618 292.412C276.353 290.795 276.168 289.152 275.216 287.695C274.714 289.02 274.555 290.292 274.502 291.59C273.973 301.74 273.392 311.863 272.942 322.012C271.99 344.193 271.937 366.373 273.18 388.527C273.339 391.469 273.709 394.384 274.026 397.537C277.279 397.193 280.187 396.901 283.413 396.583ZM46.3649 287.933C46.1269 287.933 45.9154 287.96 45.6774 287.96C45.4659 288.675 45.1221 289.391 45.0428 290.133C44.1438 299.01 42.8217 307.888 42.478 316.792C41.6847 337.859 41.3939 358.927 40.8122 379.994C40.6535 385.48 40.9179 391.071 37.6392 396.583C40.9973 396.928 43.8794 397.219 47.211 397.537C49.9081 360.729 48.8768 324.344 46.3649 287.933ZM196.791 251.734C194.226 234.483 177.859 220.544 164.347 223.883C164.347 228.865 164.03 233.926 164.453 238.908C164.77 242.698 167.784 244.818 171.698 245.427C176.801 246.222 181.904 247.044 186.902 248.236C190.18 249.058 193.3 250.489 196.791 251.734ZM124.526 251.867C132.908 248.024 141.449 246.222 150.254 245.321C153.955 244.924 156.732 241.664 156.917 237.822C157.049 234.96 156.97 232.098 156.97 229.236C156.97 227.407 156.97 225.579 156.97 223.644C155.859 223.512 155.225 223.379 154.59 223.379C147.371 223.406 141.026 225.711 135.631 230.587C129.709 235.94 126.536 242.883 124.42 250.409C124.341 250.701 124.447 251.045 124.526 251.867ZM136.134 225.579C132.326 225.579 129.048 225.764 125.769 225.526C119.899 225.102 114.346 223.22 109.163 220.517C103.558 217.602 96.4451 222.001 97.2119 228.732C97.4235 230.534 98.0052 231.515 99.5917 232.204C107.736 235.675 116.329 237.292 125.187 238.723C127.884 233.608 131.348 229.289 136.134 225.579ZM196.658 238.67C199.964 238.034 203.771 237.557 207.473 236.576C212.232 235.304 216.939 233.714 221.593 232.098C222.492 231.78 223.655 230.799 223.761 230.004C224.66 224.068 221.381 220.279 216.913 219.775C215.168 219.59 213.184 220.12 211.545 220.862C203.665 224.36 195.654 226.745 186.902 225.393C186.478 225.34 186.003 225.526 185.844 225.552C189.44 229.845 192.904 234.085 196.658 238.67ZM187.298 121.063C195.283 132.405 215.485 146.741 226.908 146.423C226.881 146.211 226.96 145.946 226.855 145.814C218.314 135.002 207.923 126.23 196.685 118.439C193.195 116.001 189.704 117.167 187.298 121.063ZM148.508 145.787C144.066 138.659 139.941 131.981 135.631 125.091C133.595 127.105 131.718 129.066 129.735 130.947C127.805 132.749 125.848 134.551 123.812 136.194C121.67 137.917 119.423 139.507 117.149 141.07C114.954 142.554 112.68 143.906 110.459 145.31C110.538 145.469 110.644 145.628 110.724 145.814C123.098 145.787 135.526 145.787 148.508 145.787ZM210.884 145.708C206.125 142.395 201.603 139.56 197.478 136.221C193.247 132.829 189.413 128.933 185.394 125.25C181.137 132.087 177.012 138.765 172.702 145.708C185.527 145.708 197.981 145.708 210.884 145.708ZM133.886 121.063C130.951 116.849 127.673 116.16 123.68 119.022C113.262 126.469 103.426 134.578 95.2288 144.515C94.7793 145.072 94.462 145.708 93.9861 146.45C105.7 146.476 125.293 132.829 133.886 121.063ZM229.578 142.104C229.419 142.289 229.261 142.475 229.076 142.687C234.02 148.729 239.018 154.718 243.857 160.839C250.493 169.24 256.707 177.905 261.995 187.233C262.101 187.419 262.286 187.551 262.445 187.684C262.524 187.737 262.656 187.763 262.762 187.763C262.842 187.763 262.947 187.71 263.027 187.684C262.498 176.898 258.902 165.583 253.746 159.223C247.32 151.22 238.7 146.291 229.578 142.104ZM58.0256 187.869C63.7898 179.601 68.9459 171.81 74.5515 164.364C80.1307 156.917 86.1858 149.815 92.0294 142.554C82.5104 146.344 73.6525 151.14 67.333 159.408C61.1193 167.544 59.2683 177.296 58.0256 187.869ZM90.152 255.974C89.9669 255.974 89.7819 255.974 89.5968 255.974C82.3782 264.322 75.1597 272.669 67.7561 281.229C73.3881 283.349 78.9673 285.469 84.9431 287.721C86.7675 276.777 88.4598 266.389 90.152 255.974ZM236.268 287.695C242.297 285.416 247.876 283.296 253.349 281.255C246.025 272.749 238.886 264.507 231.773 256.266C231.588 256.345 231.403 256.398 231.218 256.478C232.883 266.733 234.523 276.989 236.268 287.695ZM238.912 202.789C234.417 206.207 229.922 209.626 225.295 213.15C227.674 222.77 227.225 232.734 229.684 242.353C236.083 229.978 237.722 216.542 238.912 202.789ZM81.7172 202.391C81.8758 204.432 81.8758 205.757 82.0874 207.029C83.1715 213.415 84.0705 219.855 85.5248 226.188C86.6353 230.985 88.4598 235.622 90.0727 240.286C90.3636 241.161 90.628 242.327 92.1616 242.751C93.2721 232.601 94.3562 222.717 95.4403 212.859C91.051 209.52 86.7146 206.207 81.7172 202.391ZM84.3878 235.569C78.2269 251.178 72.2247 266.071 61.4366 278.42C63.4461 280.036 64.5831 278.632 65.6143 277.678C72.4891 271.424 78.65 264.534 83.7796 256.796C88.0103 250.383 87.9309 243.36 84.3878 235.569ZM123.31 242.486C114.505 240.207 106.07 238.007 97.635 235.834C97.635 238.087 97.6879 240.498 97.6085 242.91C97.5557 244.606 98.296 245.613 99.8296 246.143C104.801 247.839 109.772 249.561 114.796 251.151C116.514 251.708 118.365 251.867 120.19 252.211C121.327 248.687 122.331 245.56 123.31 242.486ZM223.682 235.755C214.982 238.007 206.442 240.207 197.822 242.459C198.853 245.613 199.884 248.819 201.021 252.291C203.586 251.734 205.966 251.39 208.24 250.648C212.708 249.217 217.151 247.627 221.54 245.931C222.412 245.586 223.497 244.526 223.576 243.705C223.84 241.002 223.682 238.272 223.682 235.755ZM236.77 235.596C232.989 243.89 233.095 251.337 238.172 258.015C243.037 264.375 248.59 270.231 253.878 276.247C254.75 277.227 255.861 277.996 256.892 278.791C257.791 279.48 258.664 279.4 259.642 278.393C248.828 266.018 242.905 251.125 236.77 235.596ZM223.497 249.561C216.119 251.787 209.033 253.934 201.709 256.16C202.132 259.128 202.528 262.096 203.031 265.541C205.49 264.958 207.632 264.64 209.668 263.951C213.502 262.652 217.309 261.221 221.038 259.684C221.857 259.34 222.888 258.465 222.994 257.723C223.338 255.02 223.338 252.291 223.497 249.561ZM203.11 269.436C203.401 273.226 203.19 277.148 203.665 281.388C206.415 280.593 208.795 280.116 210.99 279.241C216.648 276.962 220.429 272.855 222.122 266.972C222.465 265.806 223.021 264.534 222.412 263.447C215.961 265.461 209.668 267.396 203.11 269.436ZM98.0052 249.72C98.0052 251.84 98.0845 254.013 97.9787 256.186C97.8994 257.988 98.7455 259.048 100.279 259.817C105.726 262.546 111.49 264.269 117.519 265.196C117.678 265.223 117.889 265.011 118.312 264.772C118.656 261.91 119.026 258.916 119.343 256.133C112.019 253.934 105.118 251.867 98.0052 249.72ZM98.8777 263.606C98.2167 272.272 107.736 281.123 117.704 280.831C117.704 277.015 117.704 273.199 117.704 269.41C111.385 267.475 105.118 265.541 98.8777 263.606ZM189.731 568.754C192.322 570.847 194.596 572.914 197.108 574.61C200.73 577.048 205.622 576.545 208.954 573.471C210.355 572.172 211.466 570.503 212.656 569.072C206.865 561.493 196.711 561.546 189.731 568.754ZM108.423 568.966C109.613 570.423 110.591 571.907 111.808 573.126C114.901 576.253 119.714 577.181 123.283 575.008C126.139 573.285 128.651 570.98 131.321 568.913C124.526 561.307 114.32 561.758 108.423 568.966ZM164.347 219.961C167.255 219.961 169.794 219.961 172.861 219.961C171.222 218.477 169.847 217.311 168.551 216.065C167.255 214.82 166.039 213.521 164.347 211.799C164.347 214.82 164.347 217.152 164.347 219.961ZM148.033 220.305C151.443 220.12 154.088 219.987 156.705 219.828C156.705 217.099 156.705 214.793 156.705 212.011C153.797 214.793 151.232 217.231 148.033 220.305ZM160.248 421.202C161.438 419.161 161.438 419.161 160.248 417.651C160.248 419.029 160.248 420.115 160.248 421.202Z" fill="#1FA3E4"/>
</svg>
