<svg width="32" height="32" viewBox="0 0 32 32" fill="none" xmlns="http://www.w3.org/2000/svg">
<path fill-rule="evenodd" clip-rule="evenodd" d="M11.9589 3.40002C12.2903 3.40002 12.5589 3.66865 12.5589 4.00002V4.38441H19.439V4.00002C19.439 3.66865 19.7077 3.40002 20.039 3.40002C20.3704 3.40002 20.639 3.66865 20.639 4.00002V6.06931C20.639 6.40068 20.3704 6.66931 20.039 6.66931C19.7077 6.66931 19.439 6.40068 19.439 6.06931V5.58441H12.5589V6.09383C12.5589 6.4252 12.2903 6.69383 11.9589 6.69383C11.6276 6.69383 11.3589 6.4252 11.3589 6.09383V4.00002C11.3589 3.66865 11.6276 3.40002 11.9589 3.40002ZM20.6603 6.41251C21.0846 6.08667 21.6137 5.92543 22.2424 5.92543C23.8309 5.92543 24.9228 7.31105 25.5978 9.17677C26.292 11.0956 26.6619 13.7991 26.6619 17.0292C26.6619 20.2976 26.0054 22.5339 25.0791 23.9737C24.1547 25.4106 22.9381 26.0762 21.8751 26.0762C21.3596 26.0762 20.9577 25.8848 20.639 25.6051V28.0016C20.639 28.333 20.3704 28.6016 20.039 28.6016C19.7077 28.6016 19.439 28.333 19.439 28.0016V27.6171H12.5589V28.0016C12.5589 28.333 12.2903 28.6016 11.9589 28.6016C11.6275 28.6016 11.3589 28.333 11.3589 28.0016V25.618C11.0404 25.8915 10.6386 26.0762 10.1227 26.0762C9.05978 26.0762 7.84319 25.4106 6.91875 23.9737C5.99242 22.5339 5.33594 20.2976 5.33594 17.0292C5.33594 13.7992 5.70583 11.0956 6.40007 9.1768C7.0751 7.31107 8.16694 5.92546 9.75547 5.92546C10.3845 5.92546 10.9138 6.08664 11.3386 6.41226C11.5556 6.57864 11.7308 6.77688 11.8738 6.99352H20.1261C20.2688 6.77701 20.4436 6.57885 20.6603 6.41251ZM19.6306 8.19352H12.3705C12.4829 8.63746 12.5555 9.12177 12.6159 9.60264H19.3862C19.4464 9.12177 19.5186 8.63744 19.6306 8.19352ZM19.2412 10.8026H12.7615C12.8295 11.3106 12.911 11.7846 13.0309 12.2109H18.9721C19.0919 11.7847 19.1734 11.3106 19.2412 10.8026ZM18.4156 13.4109H13.5866C14.0051 13.9638 14.6887 14.3722 15.9724 14.3727L16.0037 14.3724L16.0254 14.3727C17.3116 14.3722 17.9965 13.9637 18.4156 13.4109ZM12.5589 25.008V26.4171H19.439V25.008H12.5589ZM19.5203 23.7642C19.5121 23.7784 19.5043 23.793 19.4972 23.808H12.5007C12.4944 23.7946 12.4875 23.7816 12.4802 23.7688C12.5383 23.6261 12.5953 23.4823 12.6516 23.3402C12.7335 23.1337 12.8139 22.9307 12.8943 22.74C12.943 22.6244 12.9925 22.5108 13.0432 22.3997H18.9521C19.0031 22.5113 19.053 22.6254 19.1024 22.7415C19.1798 22.9238 19.2573 23.1162 19.3361 23.3117C19.3966 23.4617 19.4579 23.6136 19.5203 23.7642ZM18.2594 21.1997C18.1737 21.0892 18.0834 20.9854 17.9875 20.8891C17.5415 20.4417 16.9553 20.1377 16.073 20.1377C15.1118 20.1377 14.4856 20.4503 14.0232 20.8971C13.926 20.991 13.8347 21.0921 13.7484 21.1997H18.2594ZM12.1718 21.4485C12.4339 20.9458 12.7589 20.45 13.1894 20.0341C13.8794 19.3674 14.8061 18.9377 16.073 18.9377C17.2844 18.9377 18.1736 19.376 18.8374 20.042C19.4783 20.6851 19.8867 21.5186 20.2069 22.2724C20.3085 22.5118 20.3999 22.7385 20.4861 22.9524C20.6883 23.4539 20.862 23.8849 21.0734 24.2437C21.3604 24.7309 21.5994 24.8762 21.8751 24.8762C22.4282 24.8762 23.305 24.5135 24.0699 23.3244C24.833 22.1383 25.4619 20.1511 25.4619 17.0292C25.4619 13.8688 25.0973 11.3205 24.4694 9.58504C23.8223 7.79649 23.0043 7.12543 22.2424 7.12543C21.8265 7.12543 21.5684 7.22818 21.3911 7.36429C21.2066 7.50593 21.0529 7.72758 20.9262 8.05933C20.7102 8.6251 20.6253 9.3444 20.526 10.1864C20.5017 10.3921 20.4766 10.6052 20.4485 10.8252C20.3141 11.8764 20.109 13.0676 19.4757 13.9919C18.8028 14.974 17.711 15.5727 16.0231 15.5727H16.0183L15.9989 15.5725L15.9796 15.5727L15.9748 15.5727C14.2888 15.5727 13.1984 14.9737 12.5265 13.9916C11.8941 13.0674 11.689 11.8765 11.5542 10.8254C11.5262 10.607 11.5011 10.3954 11.4769 10.1909C11.377 9.34725 11.2916 8.62649 11.0746 8.05991C10.9476 7.7282 10.7934 7.5064 10.6085 7.36459C10.4306 7.22826 10.1719 7.12546 9.75547 7.12546C8.99352 7.12546 8.17559 7.79652 7.52848 9.58507C6.90057 11.3205 6.53594 13.8688 6.53594 17.0292C6.53594 20.1511 7.16486 22.1384 7.92793 23.3245C8.69288 24.5135 9.56968 24.8762 10.1227 24.8762C10.4183 24.8762 10.657 24.7261 10.9361 24.2465C11.1397 23.8966 11.3039 23.4818 11.4956 22.9974C11.5849 22.7715 11.6803 22.5305 11.7885 22.2739C11.8792 22.0587 11.9776 21.8369 12.0873 21.6149C12.1067 21.5547 12.1355 21.4987 12.1718 21.4485Z" fill="#007AC5"/>
</svg>
