<svg width="32" height="32" viewBox="0 0 32 32" fill="none" xmlns="http://www.w3.org/2000/svg">
<path fill-rule="evenodd" clip-rule="evenodd" d="M15.3333 4.00009C15.3333 4.00003 15.3333 4 16 4H16.1174C16.1689 4 16.2155 4 16.2579 4C16.6667 4.00001 16.6667 4.00003 16.6667 4.00009V13.6667C16.6667 14.5985 17.0427 14.9614 17.3359 15.1325C17.3687 15.1515 17.4016 15.1689 17.4344 15.1847C17.4337 15.1045 17.4329 15.0211 17.4319 14.9346V14.9335C17.4067 12.5811 17.3577 7.9998 20.9835 7.9998C25.9506 7.9998 29.4985 25.3375 27.3698 27.1066C25.241 28.8757 20.9835 27.8143 18.8548 25.6913C17.1361 23.9773 17.2848 19.9722 17.3915 17.0971L17.3916 17.0962C17.3981 16.9213 17.4045 16.7505 17.4102 16.5847C17.1933 16.5308 16.9306 16.4397 16.6641 16.2842C16.4265 16.1456 16.1983 15.9628 16 15.7279C15.8017 15.9628 15.5735 16.1456 15.3359 16.2842C15.0694 16.4397 14.8067 16.5308 14.5899 16.5847C14.5956 16.7507 14.6019 16.9217 14.6085 17.0969C14.7152 19.9719 14.8639 23.9775 13.1453 25.6915C11.0165 27.8145 6.759 28.8759 4.63024 27.1068C2.50148 25.3377 6.04942 8 11.0165 8C14.6424 8 14.5933 12.5811 14.5681 14.9335C14.568 14.9444 14.5679 14.9552 14.5677 14.9659C14.5669 15.0413 14.5662 15.1143 14.5656 15.1847C14.5985 15.1689 14.6314 15.1516 14.6641 15.1325C14.9573 14.9614 15.3333 14.5985 15.3333 13.6667V4.00009ZM20.9835 9.33313C20.3475 9.33313 19.9895 9.53347 19.7391 9.79127C19.4501 10.0887 19.2088 10.5671 19.0393 11.2431C18.7427 12.4263 18.7553 13.7879 18.7655 14.8862C18.7673 15.0761 18.7689 15.2583 18.7689 15.4302C18.7689 15.9369 18.7464 16.5435 18.723 17.1747C18.7138 17.4233 18.7044 17.6755 18.6962 17.927C18.6664 18.8438 18.6494 19.8037 18.6937 20.7321C18.7381 21.6657 18.8428 22.5223 19.0382 23.2397C19.2359 23.9655 19.5006 24.4523 19.7963 24.7472C20.6484 25.5969 21.9939 26.2834 23.3661 26.5495C24.7228 26.8126 25.8149 26.6179 26.4545 26.1313C26.4579 26.1238 26.4615 26.1151 26.4656 26.1049C26.5051 26.0063 26.5529 25.8369 26.5919 25.5789C26.6698 25.0622 26.69 24.3415 26.6375 23.4535C26.533 21.687 26.1524 19.4459 25.5512 17.2404C24.9477 15.0264 24.1449 12.9332 23.2347 11.4255C22.7792 10.6708 22.3301 10.1191 21.9135 9.769C21.5012 9.42247 21.1957 9.33313 20.9835 9.33313ZM11.0165 9.33333C11.6525 9.33333 12.0105 9.53367 12.2609 9.79147C12.5499 10.0889 12.7912 10.5673 12.9607 11.2433C13.2573 12.4266 13.2447 13.7881 13.2345 14.8864C13.2327 15.0764 13.2311 15.2585 13.2311 15.4304C13.2311 15.9371 13.2536 16.5437 13.277 17.1749C13.2863 17.4233 13.2956 17.6759 13.3038 17.9272C13.3337 18.844 13.3506 19.8039 13.3064 20.7323C13.2619 21.6659 13.1573 22.5225 12.9618 23.2399C12.7641 23.9657 12.4995 24.4525 12.2037 24.7474C11.3517 25.5971 10.0062 26.2836 8.63393 26.5497C7.27726 26.8128 6.18512 26.6181 5.54548 26.1315C5.54217 26.124 5.53846 26.1153 5.53441 26.1051C5.49494 26.0065 5.44707 25.8371 5.40816 25.5791C5.33026 25.0624 5.31 24.3417 5.36253 23.4537C5.46704 21.6872 5.84764 19.4461 6.44882 17.2406C7.05233 15.0266 7.85513 12.9334 8.76526 11.4257C9.22086 10.671 9.66993 10.1193 10.0865 9.7692C10.4988 9.42267 10.8043 9.33333 11.0165 9.33333Z" fill="#007AC5"/>
</svg>
