<svg width="72" height="68" viewBox="0 0 72 68" fill="none" xmlns="http://www.w3.org/2000/svg">
<path d="M42.5298 13.4539V0H29.7044V13.4539H16.1836V26.2159H29.7044L29.7044 39.6699H42.5298V26.2159H56.0506V13.4539H42.5298Z" fill="#1FA3E4"/>
<path d="M30.9799 14.1972C33.9467 13.7974 35.5383 15.8245 35.9633 16.888C36.3882 15.8245 37.9798 13.7974 40.9466 14.1972C44.6552 14.6969 45.8141 19.2713 43.6894 21.6161L35.9633 29.3041L28.2371 21.6161C26.1124 19.2713 27.2713 14.6969 30.9799 14.1972Z" fill="#007AC5"/>
<path fill-rule="evenodd" clip-rule="evenodd" d="M28.2336 21.6163C26.1089 19.2715 27.2679 14.6971 30.9764 14.1974C32.7864 13.9535 34.0846 14.6129 34.9182 15.4057C35.451 15.9123 35.7941 16.4735 35.9598 16.8882C36.1255 16.4735 36.4686 15.9123 37.0014 15.4057C37.835 14.6129 39.1332 13.9535 40.9432 14.1974C44.6517 14.6971 45.8106 19.2715 43.686 21.6163L35.9598 29.3043L28.2336 21.6163ZM35.9598 14.1684C37.091 13.121 38.8089 12.2806 41.1609 12.5975C43.7261 12.9432 45.3964 14.7219 46.0457 16.7177C46.6797 18.6667 46.4064 21.0249 44.891 22.6974L44.8629 22.7284L35.9598 31.5875L27.0567 22.7284L27.0286 22.6974C25.5132 21.0249 25.2399 18.6667 25.8739 16.7177C26.5232 14.7219 28.1935 12.9432 30.7587 12.5975C33.1107 12.2806 34.8286 13.121 35.9598 14.1684Z" fill="white"/>
<path d="M36 61.4269C35.794 61.1066 35.3742 59.8816 35.3433 57.5445C35.3046 54.623 34.6479 48.1267 31.0939 44.129C29.3941 42.1301 26.69 40.7847 24.8743 40.1697C23.0587 39.5546 16.5687 37.3251 15.0621 36.1335C14.3061 35.5355 13.9804 35.1725 13.6328 34.6344C13.2078 33.9296 12.1648 32.574 11.3922 32.7892C10.465 33.0476 9.96671 35.0572 11.3922 38.2093C12.0875 39.7468 14.444 41.5151 16.5301 42.3992C17.0462 42.618 17.7634 42.8602 18.5348 43.1208C20.8808 43.9134 23.7277 44.8752 22.9428 45.8588C22.3247 46.7506 20.3159 46.7941 19.3888 46.7045C18.0496 46.4354 14.9617 45.4667 13.3237 43.7446C11.2763 41.592 8.1472 37.0561 6.44745 33.3274C4.59317 28.9914 3.61452 27.4461 3.35698 27.2155C2.59724 26.011 0.884613 23.902 0.111998 25.1013C-0.289763 25.7163 0.485429 27.8689 0.923244 28.8684C1.43832 30.0088 2.74662 33.6119 3.85918 38.9012C5.24989 45.5128 9.57654 50.164 12.3193 52.2398C14.5136 53.9004 17.9465 55.2893 19.3888 55.7762L21.2817 56.5066C24.076 57.1729 29.6414 60.4044 29.5487 68.0001H42.4513C42.3586 60.4044 47.924 57.1729 50.7183 56.5066L52.6112 55.7762C54.0535 55.2893 57.4864 53.9004 59.6807 52.2398C62.4235 50.164 66.7501 45.5128 68.1408 38.9012C69.2534 33.6119 70.5617 30.0088 71.0768 28.8684C71.5146 27.8689 72.2898 25.7163 71.888 25.1013C71.1154 23.902 69.4027 26.011 68.643 27.2155C68.3855 27.4461 67.4068 28.9914 65.5526 33.3274C63.8528 37.0561 60.7237 41.592 58.6763 43.7446C57.0383 45.4667 53.9504 46.4354 52.6112 46.7045C51.6841 46.7941 49.6753 46.7506 49.0572 45.8588C48.2723 44.8752 51.1192 43.9134 53.4652 43.1208C54.2366 42.8602 54.9538 42.618 55.4699 42.3992C57.556 41.5151 59.9125 39.7468 60.6078 38.2093C62.0333 35.0572 61.535 33.0476 60.6078 32.7892C59.8352 32.574 58.7922 33.9296 58.3672 34.6344C58.0195 35.1725 57.6939 35.5355 56.9379 36.1335C55.4313 37.3251 48.9413 39.5546 47.1257 40.1697C45.31 40.7847 42.6059 42.1301 40.9061 44.129C37.3521 48.1267 36.6954 54.623 36.6567 57.5445C36.6258 59.8816 36.206 61.1066 36 61.4269Z" fill="#007AC5"/>
</svg>
