<svg xmlns="http://www.w3.org/2000/svg" xmlns:xlink="http://www.w3.org/1999/xlink"><symbol id="icon_about-1" viewBox="0 0 24 24"><path d="M11.3495 3.83619C11.2848 4.04602 11.25 4.26894 11.25 4.5C11.25 4.91421 11.5858 5.25 12 5.25H16.5C16.9142 5.25 17.25 4.91421 17.25 4.5C17.25 4.26894 17.2152 4.04602 17.1505 3.83619M11.3495 3.83619C11.6328 2.91757 12.4884 2.25 13.5 2.25H15C16.0116 2.25 16.8672 2.91757 17.1505 3.83619M11.3495 3.83619C10.9739 3.85858 10.5994 3.88529 10.2261 3.91627C9.09499 4.01015 8.25 4.97324 8.25 6.10822V8.25M17.1505 3.83619C17.5261 3.85858 17.9006 3.88529 18.2739 3.91627C19.405 4.01015 20.25 4.97324 20.25 6.10822V16.5C20.25 17.7426 19.2426 18.75 18 18.75H15.75M8.25 8.25H4.875C4.25368 8.25 3.75 8.75368 3.75 9.375V20.625C3.75 21.2463 4.25368 21.75 4.875 21.75H14.625C15.2463 21.75 15.75 21.2463 15.75 20.625V18.75M8.25 8.25H14.625C15.2463 8.25 15.75 8.75368 15.75 9.375V18.75M7.5 15.75L9 17.25L12 13.5" stroke-width="1.5" stroke-linecap="round" stroke-linejoin="round"/></symbol><use xlink:href="#icon_about-1" width="24" height="24" y="0"/><symbol id="icon_about-2" viewBox="0 0 24 24"><path d="M17.9992 18.7191C18.2467 18.7396 18.4971 18.75 18.7498 18.75C19.7982 18.75 20.8046 18.5708 21.7403 18.2413C21.7466 18.1617 21.7498 18.0812 21.7498 18C21.7498 16.3431 20.4067 15 18.7498 15C18.1222 15 17.5396 15.1927 17.058 15.5222M17.9992 18.7191C17.9993 18.7294 17.9993 18.7397 17.9993 18.75C17.9993 18.975 17.9869 19.1971 17.9628 19.4156C16.206 20.4237 14.1699 21 11.9993 21C9.8286 21 7.79254 20.4237 6.03577 19.4156C6.01165 19.1971 5.99927 18.975 5.99927 18.75C5.99927 18.7397 5.99929 18.7295 5.99934 18.7192M17.9992 18.7191C17.9933 17.5426 17.6487 16.4461 17.058 15.5222M17.058 15.5222C15.9921 13.8552 14.1247 12.75 11.9993 12.75C9.87406 12.75 8.00692 13.8549 6.94096 15.5216M6.94096 15.5216C6.4595 15.1925 5.87723 15 5.25 15C3.59315 15 2.25 16.3431 2.25 18C2.25 18.0812 2.25323 18.1617 2.25956 18.2413C3.19519 18.5708 4.20167 18.75 5.25 18.75C5.50234 18.75 5.75226 18.7396 5.99934 18.7192M6.94096 15.5216C6.34997 16.4457 6.00525 17.5424 5.99934 18.7192M14.9993 6.75C14.9993 8.40685 13.6561 9.75 11.9993 9.75C10.3424 9.75 8.99927 8.40685 8.99927 6.75C8.99927 5.09315 10.3424 3.75 11.9993 3.75C13.6561 3.75 14.9993 5.09315 14.9993 6.75ZM20.9993 9.75C20.9993 10.9926 19.9919 12 18.7493 12C17.5066 12 16.4993 10.9926 16.4993 9.75C16.4993 8.50736 17.5066 7.5 18.7493 7.5C19.9919 7.5 20.9993 8.50736 20.9993 9.75ZM7.49927 9.75C7.49927 10.9926 6.49191 12 5.24927 12C4.00663 12 2.99927 10.9926 2.99927 9.75C2.99927 8.50736 4.00663 7.5 5.24927 7.5C6.49191 7.5 7.49927 8.50736 7.49927 9.75Z" stroke-width="1.5" stroke-linecap="round" stroke-linejoin="round"/></symbol><use xlink:href="#icon_about-2" width="24" height="24" y="24"/><symbol id="icon_about-3" viewBox="0 0 24 24"><path d="M5.63604 5.63604C2.12132 9.15076 2.12132 14.8492 5.63604 18.364C9.15076 21.8787 14.8492 21.8787 18.364 18.364C21.8787 14.8492 21.8787 9.15076 18.364 5.63604M12 3V12" stroke-width="1.5" stroke-linecap="round" stroke-linejoin="round"/></symbol><use xlink:href="#icon_about-3" width="24" height="24" y="48"/><symbol id="icon_arrow-next--blue" viewBox="0 0 24 24"><path d="M8.25 4.5L15.75 12L8.25 19.5" stroke-width="1.5" stroke-linecap="round" stroke-linejoin="round"/></symbol><use xlink:href="#icon_arrow-next--blue" width="24" height="24" y="72"/><symbol id="icon_arrow-next" viewBox="0 0 24 24"><path d="M8.25 4.5L15.75 12L8.25 19.5" stroke-width="1.5" stroke-linecap="round" stroke-linejoin="round"/></symbol><use xlink:href="#icon_arrow-next" width="24" height="24" y="96"/><symbol id="icon_arrow-prev--blue" viewBox="0 0 24 24"><path d="M15.75 19.5L8.25 12L15.75 4.5" stroke-width="1.5" stroke-linecap="round" stroke-linejoin="round"/></symbol><use xlink:href="#icon_arrow-prev--blue" width="24" height="24" y="120"/><symbol id="icon_arrow-prev" viewBox="0 0 24 24"><path d="M15.75 19.5L8.25 12L15.75 4.5" stroke-width="1.5" stroke-linecap="round" stroke-linejoin="round"/></symbol><use xlink:href="#icon_arrow-prev" width="24" height="24" y="144"/><symbol id="icon_arrow-up-right--black" viewBox="0 0 24 24"><path d="M4.5 19.5L19.5 4.5M19.5 4.5L8.25 4.5M19.5 4.5V15.75" stroke-width="1.5" stroke-linecap="round" stroke-linejoin="round"/></symbol><use xlink:href="#icon_arrow-up-right--black" width="24" height="24" y="168"/><symbol id="icon_arrow-up-right--blue" viewBox="0 0 24 24"><path fill-rule="evenodd" clip-rule="evenodd" d="M8.25 3.75L19.5 3.75C19.6989 3.75 19.8897 3.82902 20.0303 3.96967C20.171 4.11032 20.25 4.30109 20.25 4.5V15.75C20.25 16.1642 19.9142 16.5 19.5 16.5C19.0858 16.5 18.75 16.1642 18.75 15.75V6.31066L5.03033 20.0303C4.73744 20.3232 4.26256 20.3232 3.96967 20.0303C3.67678 19.7374 3.67678 19.2626 3.96967 18.9697L17.6893 5.25L8.25 5.25C7.83579 5.25 7.5 4.91421 7.5 4.5C7.5 4.08579 7.83579 3.75 8.25 3.75Z"/></symbol><use xlink:href="#icon_arrow-up-right--blue" width="24" height="24" y="192"/><symbol id="icon_arrow-up-right--white" viewBox="0 0 24 24"><path fill-rule="evenodd" clip-rule="evenodd" d="M8.25 3.75L19.5 3.75C19.6989 3.75 19.8897 3.82902 20.0303 3.96967C20.171 4.11032 20.25 4.30109 20.25 4.5V15.75C20.25 16.1642 19.9142 16.5 19.5 16.5C19.0858 16.5 18.75 16.1642 18.75 15.75V6.31066L5.03033 20.0303C4.73744 20.3232 4.26256 20.3232 3.96967 20.0303C3.67678 19.7374 3.67678 19.2626 3.96967 18.9697L17.6893 5.25L8.25 5.25C7.83579 5.25 7.5 4.91421 7.5 4.5C7.5 4.08579 7.83579 3.75 8.25 3.75Z"/></symbol><use xlink:href="#icon_arrow-up-right--white" width="24" height="24" y="216"/><symbol id="icon_chevron-down--black" viewBox="0 0 20 20"><path fill-rule="evenodd" clip-rule="evenodd" d="M5.21967 8.21967C5.51256 7.92678 5.98744 7.92678 6.28033 8.21967L10 11.9393L13.7197 8.21967C14.0126 7.92678 14.4874 7.92678 14.7803 8.21967C15.0732 8.51256 15.0732 8.98744 14.7803 9.28033L10.5303 13.5303C10.3897 13.671 10.1989 13.75 10 13.75C9.80109 13.75 9.61032 13.671 9.46967 13.5303L5.21967 9.28033C4.92678 8.98744 4.92678 8.51256 5.21967 8.21967Z"/></symbol><use xlink:href="#icon_chevron-down--black" width="20" height="20" y="240"/><symbol id="icon_chevron-down--blue" viewBox="0 0 20 20"><path fill-rule="evenodd" clip-rule="evenodd" d="M5.21967 8.21967C5.51256 7.92678 5.98744 7.92678 6.28033 8.21967L10 11.9393L13.7197 8.21967C14.0126 7.92678 14.4874 7.92678 14.7803 8.21967C15.0732 8.51256 15.0732 8.98744 14.7803 9.28033L10.5303 13.5303C10.3897 13.671 10.1989 13.75 10 13.75C9.80109 13.75 9.61032 13.671 9.46967 13.5303L5.21967 9.28033C4.92678 8.98744 4.92678 8.51256 5.21967 8.21967Z"/></symbol><use xlink:href="#icon_chevron-down--blue" width="20" height="20" y="260"/><symbol id="icon_chevron-down--dark-blue" viewBox="0 0 20 20"><path fill-rule="evenodd" clip-rule="evenodd" d="M5.21967 8.21967C5.51256 7.92678 5.98744 7.92678 6.28033 8.21967L10 11.9393L13.7197 8.21967C14.0126 7.92678 14.4874 7.92678 14.7803 8.21967C15.0732 8.51256 15.0732 8.98744 14.7803 9.28033L10.5303 13.5303C10.3897 13.671 10.1989 13.75 10 13.75C9.80109 13.75 9.61032 13.671 9.46967 13.5303L5.21967 9.28033C4.92678 8.98744 4.92678 8.51256 5.21967 8.21967Z"/></symbol><use xlink:href="#icon_chevron-down--dark-blue" width="20" height="20" y="280"/><symbol id="icon_chevron-left--dark-blue" viewBox="0 0 24 24"><path d="M15.75 19.5L8.25 12L15.75 4.5" stroke-width="1.5" stroke-linecap="round" stroke-linejoin="round"/></symbol><use xlink:href="#icon_chevron-left--dark-blue" width="24" height="24" y="300"/><symbol id="icon_chevron-right--black" viewBox="0 0 20 20"><path fill-rule="evenodd" clip-rule="evenodd" d="M8.21967 5.21967C8.51256 4.92678 8.98744 4.92678 9.28033 5.21967L13.5303 9.46967C13.8232 9.76256 13.8232 10.2374 13.5303 10.5303L9.28033 14.7803C8.98744 15.0732 8.51256 15.0732 8.21967 14.7803C7.92678 14.4874 7.92678 14.0126 8.21967 13.7197L11.9393 10L8.21967 6.28033C7.92678 5.98744 7.92678 5.51256 8.21967 5.21967Z"/></symbol><use xlink:href="#icon_chevron-right--black" width="20" height="20" y="324"/><symbol id="icon_chevron-right--dark-blue" viewBox="0 0 24 24"><path d="M8.25 4.5L15.75 12L8.25 19.5" stroke-width="1.5" stroke-linecap="round" stroke-linejoin="round"/></symbol><use xlink:href="#icon_chevron-right--dark-blue" width="24" height="24" y="344"/><symbol id="icon_list-circle" viewBox="0 0 8 8"><circle cx="4" cy="4" r="2.5" stroke-width="3"/></symbol><use xlink:href="#icon_list-circle" width="8" height="8" y="368"/><symbol id="icon_note--white" viewBox="0 0 32 32"><path fill-rule="evenodd" clip-rule="evenodd" d="M9.33366 5.00033C8.59726 5.00033 8.00033 5.59728 8.00033 6.33366V25.0003C8.00033 25.7367 8.59726 26.3337 9.33366 26.3337H16.667V27.667H9.33366C7.86093 27.667 6.66699 26.4731 6.66699 25.0003V6.33366C6.66699 4.8609 7.86093 3.66699 9.33366 3.66699H22.667C24.1397 3.66699 25.3337 4.8609 25.3337 6.33366V25.0003C25.3337 26.4731 24.1397 27.667 22.667 27.667H20.667V26.3337H22.667C23.4034 26.3337 24.0003 25.7367 24.0003 25.0003V6.33366C24.0003 5.59728 23.4034 5.00033 22.667 5.00033H9.33366Z"/><path fill-rule="evenodd" clip-rule="evenodd" d="M12 8.33366C12 7.96546 12.2985 7.66699 12.6667 7.66699H19.3333C19.7015 7.66699 20 7.96546 20 8.33366C20 8.70186 19.7015 9.00033 19.3333 9.00033H12.6667C12.2985 9.00033 12 8.70186 12 8.33366Z"/><path fill-rule="evenodd" clip-rule="evenodd" d="M9.33301 12.3337C9.33301 11.9655 9.63147 11.667 9.99967 11.667H21.9997C22.3679 11.667 22.6663 11.9655 22.6663 12.3337C22.6663 12.7019 22.3679 13.0003 21.9997 13.0003H9.99967C9.63147 13.0003 9.33301 12.7019 9.33301 12.3337Z"/><path fill-rule="evenodd" clip-rule="evenodd" d="M9.33301 14.9997C9.33301 14.6315 9.63147 14.333 9.99967 14.333H21.9997C22.3679 14.333 22.6663 14.6315 22.6663 14.9997C22.6663 15.3679 22.3679 15.6663 21.9997 15.6663H9.99967C9.63147 15.6663 9.33301 15.3679 9.33301 14.9997Z"/><path fill-rule="evenodd" clip-rule="evenodd" d="M9.33301 17.6667C9.33301 17.2985 9.63147 17 9.99967 17H21.9997C22.3679 17 22.6663 17.2985 22.6663 17.6667C22.6663 18.0349 22.3679 18.3333 21.9997 18.3333H9.99967C9.63147 18.3333 9.33301 18.0349 9.33301 17.6667Z"/><path fill-rule="evenodd" clip-rule="evenodd" d="M18.6667 24.333C19.4031 24.333 20 23.7361 20 22.9997C20 22.2633 19.4031 21.6663 18.6667 21.6663C17.9303 21.6663 17.3333 22.2633 17.3333 22.9997C17.3333 23.7361 17.9303 24.333 18.6667 24.333ZM18.6667 25.6663C20.1394 25.6663 21.3333 24.4724 21.3333 22.9997C21.3333 21.5269 20.1394 20.333 18.6667 20.333C17.1939 20.333 16 21.5269 16 22.9997C16 24.4724 17.1939 25.6663 18.6667 25.6663Z"/><path fill-rule="evenodd" clip-rule="evenodd" d="M18.0003 24.333H16.667V30.333L18.667 29.333L20.667 30.333V24.333H19.3337V28.1756L18.667 27.8423L18.0003 28.1756V24.333Z"/></symbol><use xlink:href="#icon_note--white" width="32" height="32" y="376"/><symbol id="icon_note" viewBox="0 0 32 32"><path fill-rule="evenodd" clip-rule="evenodd" d="M9.33464 5.00033C8.59824 5.00033 8.0013 5.59728 8.0013 6.33366V25.0003C8.0013 25.7367 8.59824 26.3337 9.33464 26.3337H16.668V27.667H9.33464C7.8619 27.667 6.66797 26.4731 6.66797 25.0003V6.33366C6.66797 4.8609 7.8619 3.66699 9.33464 3.66699H22.668C24.1407 3.66699 25.3346 4.8609 25.3346 6.33366V25.0003C25.3346 26.4731 24.1407 27.667 22.668 27.667H20.668V26.3337H22.668C23.4044 26.3337 24.0013 25.7367 24.0013 25.0003V6.33366C24.0013 5.59728 23.4044 5.00033 22.668 5.00033H9.33464Z"/><path fill-rule="evenodd" clip-rule="evenodd" d="M12 8.33366C12 7.96546 12.2985 7.66699 12.6667 7.66699H19.3333C19.7015 7.66699 20 7.96546 20 8.33366C20 8.70186 19.7015 9.00033 19.3333 9.00033H12.6667C12.2985 9.00033 12 8.70186 12 8.33366Z"/><path fill-rule="evenodd" clip-rule="evenodd" d="M9.33203 12.3337C9.33203 11.9655 9.6305 11.667 9.9987 11.667H21.9987C22.3669 11.667 22.6654 11.9655 22.6654 12.3337C22.6654 12.7019 22.3669 13.0003 21.9987 13.0003H9.9987C9.6305 13.0003 9.33203 12.7019 9.33203 12.3337Z"/><path fill-rule="evenodd" clip-rule="evenodd" d="M9.33203 14.9997C9.33203 14.6315 9.6305 14.333 9.9987 14.333H21.9987C22.3669 14.333 22.6654 14.6315 22.6654 14.9997C22.6654 15.3679 22.3669 15.6663 21.9987 15.6663H9.9987C9.6305 15.6663 9.33203 15.3679 9.33203 14.9997Z"/><path fill-rule="evenodd" clip-rule="evenodd" d="M9.33203 17.6667C9.33203 17.2985 9.6305 17 9.9987 17H21.9987C22.3669 17 22.6654 17.2985 22.6654 17.6667C22.6654 18.0349 22.3669 18.3333 21.9987 18.3333H9.9987C9.6305 18.3333 9.33203 18.0349 9.33203 17.6667Z"/><path fill-rule="evenodd" clip-rule="evenodd" d="M18.6667 24.333C19.4031 24.333 20 23.7361 20 22.9997C20 22.2633 19.4031 21.6663 18.6667 21.6663C17.9303 21.6663 17.3333 22.2633 17.3333 22.9997C17.3333 23.7361 17.9303 24.333 18.6667 24.333ZM18.6667 25.6663C20.1394 25.6663 21.3333 24.4724 21.3333 22.9997C21.3333 21.5269 20.1394 20.333 18.6667 20.333C17.1939 20.333 16 21.5269 16 22.9997C16 24.4724 17.1939 25.6663 18.6667 25.6663Z"/><path fill-rule="evenodd" clip-rule="evenodd" d="M18.0013 24.333H16.668V30.333L18.668 29.333L20.668 30.333V24.333H19.3346V28.1756L18.668 27.8423L18.0013 28.1756V24.333Z"/></symbol><use xlink:href="#icon_note" width="32" height="32" y="408"/><symbol id="icon_plus--white" viewBox="0 0 34 34"><path fill-rule="evenodd" clip-rule="evenodd" d="M11.1666 11.1664C11.4595 10.8735 11.9344 10.8735 12.2273 11.1664L17.0003 15.9393L21.7732 11.1664C22.0661 10.8735 22.541 10.8735 22.8339 11.1664C23.1268 11.4593 23.1268 11.9341 22.8339 12.227L18.0609 17L22.8339 21.773C23.1268 22.0659 23.1268 22.5407 22.8339 22.8336C22.541 23.1265 22.0661 23.1265 21.7732 22.8336L17.0003 18.0607L12.2273 22.8336C11.9344 23.1265 11.4595 23.1265 11.1666 22.8336C10.8737 22.5407 10.8737 22.0659 11.1666 21.773L15.9396 17L11.1666 12.227C10.8737 11.9341 10.8737 11.4593 11.1666 11.1664Z"/></symbol><use xlink:href="#icon_plus--white" width="34" height="34" y="440"/><symbol id="icon_plus" viewBox="0 0 25 24"><path fill-rule="evenodd" clip-rule="evenodd" d="M12.5 3.75C12.9142 3.75 13.25 4.08579 13.25 4.5V11.25H20C20.4142 11.25 20.75 11.5858 20.75 12C20.75 12.4142 20.4142 12.75 20 12.75H13.25V19.5C13.25 19.9142 12.9142 20.25 12.5 20.25C12.0858 20.25 11.75 19.9142 11.75 19.5V12.75H5C4.58579 12.75 4.25 12.4142 4.25 12C4.25 11.5858 4.58579 11.25 5 11.25H11.75V4.5C11.75 4.08579 12.0858 3.75 12.5 3.75Z"/></symbol><use xlink:href="#icon_plus" width="25" height="24" y="474"/><symbol id="icon_review-text" viewBox="0 0 24 24"><path d="M12 6.25278V19.2528M12 6.25278C10.8321 5.47686 9.24649 5 7.5 5C5.75351 5 4.16789 5.47686 3 6.25278V19.2528C4.16789 18.4769 5.75351 18 7.5 18C9.24649 18 10.8321 18.4769 12 19.2528M12 6.25278C13.1679 5.47686 14.7535 5 16.5 5C18.2465 5 19.8321 5.47686 21 6.25278V19.2528C19.8321 18.4769 18.2465 18 16.5 18C14.7535 18 13.1679 18.4769 12 19.2528" stroke-width="2" stroke-linecap="round" stroke-linejoin="round"/></symbol><use xlink:href="#icon_review-text" width="24" height="24" y="498"/><symbol id="icon_review-video" viewBox="0 0 24 24"><path d="M14.7519 11.1679L11.5547 9.03647C10.8901 8.59343 10 9.06982 10 9.86852V14.1315C10 14.9302 10.8901 15.4066 11.5547 14.9635L14.7519 12.8321C15.3457 12.4362 15.3457 11.5638 14.7519 11.1679Z" stroke-width="2" stroke-linecap="round" stroke-linejoin="round"/><path d="M21 12C21 16.9706 16.9706 21 12 21C7.02944 21 3 16.9706 3 12C3 7.02944 7.02944 3 12 3C16.9706 3 21 7.02944 21 12Z" stroke-width="2" stroke-linecap="round" stroke-linejoin="round"/></symbol><use xlink:href="#icon_review-video" width="24" height="24" y="522"/><symbol id="icon_search" viewBox="0 0 20 20"><path fill-rule="evenodd" clip-rule="evenodd" d="M9 3.5C5.96243 3.5 3.5 5.96243 3.5 9C3.5 12.0376 5.96243 14.5 9 14.5C10.519 14.5 11.893 13.8852 12.8891 12.8891C13.8852 11.893 14.5 10.519 14.5 9C14.5 5.96243 12.0376 3.5 9 3.5ZM2 9C2 5.13401 5.13401 2 9 2C12.866 2 16 5.13401 16 9C16 10.6625 15.4197 12.1906 14.4517 13.3911L17.7803 16.7197C18.0732 17.0126 18.0732 17.4874 17.7803 17.7803C17.4874 18.0732 17.0126 18.0732 16.7197 17.7803L13.3911 14.4517C12.1906 15.4197 10.6625 16 9 16C5.13401 16 2 12.866 2 9Z"/></symbol><use xlink:href="#icon_search" width="20" height="20" y="546"/><symbol id="icon_telegram" viewBox="0 0 20 20"><g clip-path="url(#clip0_6861_4194)"><path d="M10 20C15.5228 20 20 15.5228 20 10C20 4.47715 15.5228 0 10 0C4.47715 0 0 4.47715 0 10C0 15.5228 4.47715 20 10 20Z"/><path fill-rule="evenodd" clip-rule="evenodd" d="M4.52782 9.89446C7.44302 8.62435 9.38695 7.78702 10.3596 7.38246C13.1367 6.22737 13.7138 6.02672 14.0899 6.02009C14.1726 6.01863 14.3576 6.03913 14.4774 6.13635C14.5785 6.21844 14.6064 6.32934 14.6197 6.40717C14.633 6.485 14.6496 6.6623 14.6364 6.80083C14.4859 8.38207 13.8348 12.2193 13.5035 13.9903C13.3633 14.7397 13.0873 14.991 12.8201 15.0156C12.2393 15.069 11.7984 14.6318 11.2359 14.2631C10.3558 13.6861 9.85857 13.327 9.00425 12.764C8.01694 12.1134 8.65697 11.7558 9.21964 11.1714C9.36689 11.0184 11.9256 8.69115 11.9751 8.48003C11.9813 8.45362 11.987 8.3552 11.9285 8.30323C11.8701 8.25126 11.7838 8.26903 11.7215 8.28316C11.6332 8.3032 10.2272 9.23253 7.50344 11.0711C7.10435 11.3452 6.74286 11.4787 6.41898 11.4717C6.06193 11.464 5.37511 11.2698 4.86452 11.1039C4.23827 10.9003 3.74054 10.7927 3.78388 10.4469C3.80646 10.2669 4.05443 10.0827 4.52782 9.89446Z"/></g><defs><linearGradient id="paint0_linear_6861_4194" x1="1000" y1="0" x2="1000" y2="1985.17" gradientUnits="userSpaceOnUse"><stop stop-color="#2AABEE"/><stop offset="1" stop-color="#229ED9"/></linearGradient><clipPath id="clip0_6861_4194"><rect width="20" height="20"/></clipPath></defs></symbol><use xlink:href="#icon_telegram" width="20" height="20" y="566"/><symbol id="icon_vk" viewBox="0 0 32 32"><path d="M0 15.36C0 8.11923 0 4.49884 2.24942 2.24942C4.49884 0 8.11923 0 15.36 0H16.64C23.8808 0 27.5012 0 29.7506 2.24942C32 4.49884 32 8.11923 32 15.36V16.64C32 23.8808 32 27.5012 29.7506 29.7506C27.5012 32 23.8808 32 16.64 32H15.36C8.11923 32 4.49884 32 2.24942 29.7506C0 27.5012 0 23.8808 0 16.64V15.36Z"/><path d="M17.0267 23.0534C9.73334 23.0534 5.57338 18.0534 5.40005 9.7334H9.05337C9.17337 15.8401 11.8666 18.4267 14 18.96V9.7334H17.4401V15C19.5468 14.7734 21.7598 12.3734 22.5065 9.7334H25.9466C25.3733 12.9867 22.9733 15.3867 21.2666 16.3734C22.9733 17.1734 25.7067 19.2667 26.7467 23.0534H22.9599C22.1466 20.5201 20.1201 18.56 17.4401 18.2934V23.0534H17.0267Z"/></symbol><use xlink:href="#icon_vk" width="32" height="32" y="586"/><symbol id="icon_whatsapp" viewBox="0 0 20 20"><g clip-path="url(#clip0_6861_4187)"><path d="M10 20C4.478 20 0 15.522 0 10C0 4.478 4.478 0 10 0C15.522 0 20 4.478 20 10C20 15.522 15.522 20 10 20Z"/><path fill-rule="evenodd" clip-rule="evenodd" d="M14.6783 5.34402C13.4383 4.10202 11.7863 3.41802 10.0283 3.41602C6.40634 3.41602 3.45634 6.36402 3.45634 9.98802C3.45634 11.146 3.75834 12.278 4.33434 13.274L3.40234 16.68L6.88634 15.766C7.84634 16.29 8.92634 16.566 10.0263 16.566H10.0283C13.6503 16.566 16.5983 13.618 16.6003 9.99402C16.6023 8.23802 15.9203 6.58602 14.6783 5.34402ZM10.0303 15.456H10.0283C9.04834 15.456 8.08634 15.192 7.24834 14.694L7.04834 14.576L4.98034 15.118L5.53234 13.102L5.40234 12.896C4.85634 12.026 4.56634 11.022 4.56634 9.98802C4.56834 6.97601 7.01834 4.52602 10.0323 4.52602C11.4923 4.52602 12.8623 5.09602 13.8943 6.12802C14.9263 7.16002 15.4943 8.53402 15.4923 9.99202C15.4923 13.006 13.0403 15.456 10.0303 15.456ZM13.0263 11.364C12.8623 11.282 12.0543 10.884 11.9043 10.83C11.7543 10.776 11.6443 10.748 11.5343 10.912C11.4243 11.076 11.1103 11.446 11.0143 11.556C10.9183 11.666 10.8223 11.68 10.6583 11.598C10.4943 11.516 9.96434 11.342 9.33834 10.782C8.85034 10.346 8.52034 9.80802 8.42434 9.64402C8.32834 9.48002 8.41434 9.39002 8.49634 9.30801C8.57034 9.23401 8.66034 9.11602 8.74234 9.02002C8.82434 8.92402 8.85234 8.85602 8.90634 8.74602C8.96034 8.63602 8.93434 8.54002 8.89234 8.45802C8.85034 8.37602 8.52234 7.56802 8.38634 7.23802C8.25234 6.91802 8.11834 6.96202 8.01634 6.95602C7.92034 6.95202 7.81034 6.95002 7.70234 6.95002C7.59234 6.95002 7.41434 6.99202 7.26434 7.15602C7.11434 7.32002 6.69034 7.71802 6.69034 8.52602C6.69034 9.33402 7.27834 10.116 7.36034 10.224C7.44234 10.334 8.51834 11.992 10.1663 12.704C10.5583 12.874 10.8643 12.974 11.1023 13.05C11.4963 13.176 11.8543 13.158 12.1363 13.116C12.4523 13.068 13.1083 12.718 13.2443 12.336C13.3803 11.952 13.3803 11.624 13.3403 11.556C13.3003 11.488 13.1903 11.448 13.0263 11.364Z"/></g><defs><clipPath id="clip0_6861_4187"><rect width="20" height="20"/></clipPath></defs></symbol><use xlink:href="#icon_whatsapp" width="20" height="20" y="618"/><symbol id="icon_x-mark--blue" viewBox="0 0 16 17"><path d="M5.02426 4.67574C4.78995 4.44142 4.41005 4.44142 4.17574 4.67574C3.94142 4.91005 3.94142 5.28995 4.17574 5.52426L7.15147 8.5L4.17574 11.4757C3.94142 11.7101 3.94142 12.0899 4.17574 12.3243C4.41005 12.5586 4.78995 12.5586 5.02426 12.3243L8 9.34853L10.9757 12.3243C11.2101 12.5586 11.5899 12.5586 11.8243 12.3243C12.0586 12.0899 12.0586 11.7101 11.8243 11.4757L8.84853 8.5L11.8243 5.52426C12.0586 5.28995 12.0586 4.91005 11.8243 4.67574C11.5899 4.44142 11.2101 4.44142 10.9757 4.67574L8 7.65147L5.02426 4.67574Z"/></symbol><use xlink:href="#icon_x-mark--blue" width="16" height="17" y="638"/><symbol id="icon_x-mark" viewBox="0 0 24 24"><path d="M6 18L18 6M6 6L18 18" stroke-width="1.5" stroke-linecap="round" stroke-linejoin="round"/></symbol><use xlink:href="#icon_x-mark" width="24" height="24" y="655"/><symbol id="icon_zoom-in" viewBox="0 0 24 24"><path fill-rule="evenodd" clip-rule="evenodd" d="M15 3.75C15 3.33579 15.3358 3 15.75 3L20.25 3C20.6642 3 21 3.33579 21 3.75V8.25C21 8.66421 20.6642 9 20.25 9C19.8358 9 19.5 8.66421 19.5 8.25V5.56066L15.5303 9.53033C15.2374 9.82322 14.7626 9.82322 14.4697 9.53033C14.1768 9.23744 14.1768 8.76256 14.4697 8.46967L18.4393 4.5H15.75C15.3358 4.5 15 4.16421 15 3.75ZM3 3.75C3 3.33579 3.33579 3 3.75 3H8.25C8.66421 3 9 3.33579 9 3.75C9 4.16421 8.66421 4.5 8.25 4.5H5.56066L9.53033 8.46967C9.82322 8.76256 9.82322 9.23744 9.53033 9.53033C9.23744 9.82322 8.76256 9.82322 8.46967 9.53033L4.5 5.56066V8.25C4.5 8.66421 4.16421 9 3.75 9C3.33579 9 3 8.66421 3 8.25V3.75ZM14.4697 15.5303C14.1768 15.2374 14.1768 14.7626 14.4697 14.4697C14.7626 14.1768 15.2374 14.1768 15.5303 14.4697L19.5 18.4393V15.75C19.5 15.3358 19.8358 15 20.25 15C20.6642 15 21 15.3358 21 15.75V20.25C21 20.6642 20.6642 21 20.25 21H15.75C15.3358 21 15 20.6642 15 20.25C15 19.8358 15.3358 19.5 15.75 19.5H18.4393L14.4697 15.5303ZM9.53033 14.4697C9.82322 14.7626 9.82322 15.2374 9.53033 15.5303L5.56066 19.5H8.25C8.66421 19.5 9 19.8358 9 20.25C9 20.6642 8.66421 21 8.25 21H3.75C3.33579 21 3 20.6642 3 20.25V15.75C3 15.3358 3.33579 15 3.75 15C4.16421 15 4.5 15.3358 4.5 15.75V18.4393L8.46967 14.4697C8.76256 14.1768 9.23744 14.1768 9.53033 14.4697Z"/></symbol><use xlink:href="#icon_zoom-in" width="24" height="24" y="679"/><symbol id="icon_zoom-out" viewBox="0 0 24 24"><path fill-rule="evenodd" clip-rule="evenodd" d="M3.21967 3.21967C3.51256 2.92678 3.98744 2.92678 4.28033 3.21967L8.25 7.18934L8.25 4.5C8.25 4.08579 8.58579 3.75 9 3.75C9.41421 3.75 9.75 4.08579 9.75 4.5L9.75 9C9.75 9.41421 9.41421 9.75 9 9.75H4.5C4.08579 9.75 3.75 9.41421 3.75 9C3.75 8.58579 4.08579 8.25 4.5 8.25L7.18934 8.25L3.21967 4.28033C2.92678 3.98744 2.92678 3.51256 3.21967 3.21967ZM20.7803 3.21967C21.0732 3.51256 21.0732 3.98744 20.7803 4.28033L16.8107 8.25H19.5C19.9142 8.25 20.25 8.58579 20.25 9C20.25 9.41421 19.9142 9.75 19.5 9.75H15C14.5858 9.75 14.25 9.41421 14.25 9V4.5C14.25 4.08579 14.5858 3.75 15 3.75C15.4142 3.75 15.75 4.08579 15.75 4.5V7.18934L19.7197 3.21967C20.0126 2.92678 20.4874 2.92678 20.7803 3.21967ZM3.75 15C3.75 14.5858 4.08579 14.25 4.5 14.25L9 14.25C9.41421 14.25 9.75 14.5858 9.75 15V19.5C9.75 19.9142 9.41421 20.25 9 20.25C8.58579 20.25 8.25 19.9142 8.25 19.5L8.25 16.8107L4.28033 20.7803C3.98744 21.0732 3.51256 21.0732 3.21967 20.7803C2.92678 20.4874 2.92678 20.0126 3.21967 19.7197L7.18934 15.75H4.5C4.08579 15.75 3.75 15.4142 3.75 15ZM14.25 15C14.25 14.5858 14.5858 14.25 15 14.25H19.5C19.9142 14.25 20.25 14.5858 20.25 15C20.25 15.4142 19.9142 15.75 19.5 15.75H16.8107L20.7803 19.7197C21.0732 20.0126 21.0732 20.4874 20.7803 20.7803C20.4874 21.0732 20.0126 21.0732 19.7197 20.7803L15.75 16.8107V19.5C15.75 19.9142 15.4142 20.25 15 20.25C14.5858 20.25 14.25 19.9142 14.25 19.5L14.25 15Z"/></symbol><use xlink:href="#icon_zoom-out" width="24" height="24" y="703"/></svg>